<svg width="240" height="62" viewBox="0 0 240 62" fill="none" xmlns="http://www.w3.org/2000/svg">
<path d="M2 55.4999L5.4 19.6999C6.52 16.3399 9.2 15.3666 10.4 15.2999H41.2C44.4 15.2999 46.2667 18.2333 46.8 19.6999C47.8667 30.2999 50 52.4199 50 56.0999C50 59.7799 46.8 61.2333 45.2 61.4999H6.8C3.12 61.4999 2.06667 57.4999 2 55.4999Z" fill="#730205" fill-opacity="0.6"/>
<path d="M23 2.51795C16.92 4.27795 14.2 11.918 13.6 15.518H18.4C20.32 6.87796 25.0666 6.18462 27.2 6.91794C31.52 8.35794 33.5333 13.2513 34 15.518H38.2C38.2 7.11795 30.6 0.317954 23 2.51795Z" fill="#730205" fill-opacity="0.6"/>
<path d="M0 53.4999L3.4 17.6999C4.52 14.3399 7.2 13.3666 8.4 13.2999H39.2C42.4 13.2999 44.2667 16.2333 44.8 17.6999C45.8667 28.2999 48 50.4199 48 54.0999C48 57.7799 44.8 59.2333 43.2 59.4999H4.8C1.12 59.4999 0.0666667 55.4999 0 53.4999Z" fill="#D80005"/>
<path d="M21 0.517954C14.92 2.27795 12.2 9.91795 11.6 13.518H16.4C18.32 4.87796 23.0666 4.18462 25.2 4.91794C29.52 6.35794 31.5333 11.2513 32 13.518H36.2C36.2 5.11795 28.6 -1.68205 21 0.517954Z" fill="#D80005"/>
<circle cx="13.2" cy="19.3" r="2.8" fill="#D80005"/>
<circle cx="33.6" cy="19.3" r="2.8" fill="#D80005"/>
<path d="M74.3394 40.7373L71.8784 43.4375V50H65.8799V25.1172H71.8784V36.0889L73.9634 32.9272L79.3296 25.1172H86.7466L78.3384 36.123L86.7466 50H79.6372L74.3394 40.7373ZM109.551 29.7485H102.083V50H96.0845V29.7485H88.7529V25.1172H109.551V29.7485ZM121.726 25.1172L127.28 42.4292L132.817 25.1172H140.713V50H134.697V44.1895L135.278 32.2949L129.263 50H125.298L119.265 32.2778L119.846 44.1895V50H113.848V25.1172H121.726ZM154.75 40.7373L152.29 43.4375V50H146.291V25.1172H152.29V36.0889L154.375 32.9272L159.741 25.1172H167.158L158.75 36.123L167.158 50H160.048L154.75 40.7373ZM184.562 45.3516H176.342L174.906 50H168.498L177.624 25.1172H183.263L192.458 50H186.015L184.562 45.3516ZM177.777 40.7202H183.126L180.443 32.0898L177.777 40.7202ZM205.282 41.2158H202.035V50H196.036V25.1172H205.829C208.779 25.1172 211.087 25.7723 212.75 27.0825C214.413 28.3927 215.245 30.2441 215.245 32.6367C215.245 34.3685 214.892 35.804 214.186 36.9434C213.491 38.0827 212.397 39.0055 210.904 39.7119L216.1 49.7437V50H209.674L205.282 41.2158ZM202.035 36.5845H205.829C206.968 36.5845 207.822 36.2882 208.392 35.6958C208.973 35.092 209.264 34.2546 209.264 33.1836C209.264 32.1126 208.973 31.2752 208.392 30.6714C207.811 30.0562 206.957 29.7485 205.829 29.7485H202.035V36.5845ZM239.297 29.7485H231.829V50H225.831V29.7485H218.499V25.1172H239.297V29.7485Z" fill="#D80005"/>
<path d="M13.6035 35.2949L12.6191 36.375V39H10.2197V29.0469H12.6191V33.4355L13.4531 32.1709L15.5996 29.0469H18.5664L15.2031 33.4492L18.5664 39H15.7227L13.6035 35.2949ZM26.9883 30.8994H24.001V39H21.6016V30.8994H18.6689V29.0469H26.9883V30.8994ZM31.1582 29.0469L33.3799 35.9717L35.5947 29.0469H38.7529V39H36.3467V36.6758L36.5791 31.918L34.1729 39H32.5869L30.1738 31.9111L30.4062 36.6758V39H28.0068V29.0469H31.1582ZM14.5537 48.3535L13.8506 49.125V51H12.1367V43.8906H13.8506V47.0254L14.4463 46.1221L15.9795 43.8906H18.0986L15.6963 47.0352L18.0986 51H16.0674L14.5537 48.3535ZM22.5713 49.6719H20.2227L19.8125 51H17.9814L20.5889 43.8906H22.2002L24.8271 51H22.9863L22.5713 49.6719ZM20.6328 48.3486H22.1611L21.3945 45.8828L20.6328 48.3486ZM27.9912 48.4902H27.0635V51H25.3496V43.8906H28.1475C28.9906 43.8906 29.6497 44.0778 30.125 44.4521C30.6003 44.8265 30.8379 45.3555 30.8379 46.0391C30.8379 46.5339 30.737 46.944 30.5352 47.2695C30.3366 47.5951 30.0241 47.8587 29.5977 48.0605L31.082 50.9268V51H29.2461L27.9912 48.4902ZM27.0635 47.167H28.1475C28.473 47.167 28.7171 47.0824 28.8799 46.9131C29.0459 46.7406 29.1289 46.5013 29.1289 46.1953C29.1289 45.8893 29.0459 45.6501 28.8799 45.4775C28.7139 45.3018 28.4697 45.2139 28.1475 45.2139H27.0635V47.167ZM37.21 45.2139H35.0762V51H33.3623V45.2139H31.2676V43.8906H37.21V45.2139Z" fill="white"/>
</svg>
