<svg width="1350" height="1006" viewBox="0 0 1350 1006" fill="none" xmlns="http://www.w3.org/2000/svg">
<path d="M1350 884.074H0V884.749H1350V884.074Z" fill="#EBEBEB"/>
<path d="M1214.73 927.515H1125.31V928.19H1214.73V927.515Z" fill="#EBEBEB"/>
<path d="M894.294 934.858H870.831V935.533H894.294V934.858Z" fill="#EBEBEB"/>
<path d="M1122.61 902.46H1070.79V903.135H1122.61V902.46Z" fill="#EBEBEB"/>
<path d="M258.255 906.996H141.642V907.671H258.255V906.996Z" fill="#EBEBEB"/>
<path d="M299.403 906.996H282.312V907.671H299.403V906.996Z" fill="#EBEBEB"/>
<path d="M607.905 918.389H354.969V919.064H607.905V918.389Z" fill="#EBEBEB"/>
<path d="M639.9 763.659H118.557C114.473 763.652 110.558 762.025 107.673 759.135C104.788 756.244 103.167 752.327 103.167 748.243V15.4163C103.203 11.3558 104.839 7.47321 107.72 4.61199C110.602 1.75077 114.496 0.141966 118.557 0.13501H639.9C643.989 0.13501 647.91 1.75922 650.801 4.65033C653.693 7.54145 655.317 11.4626 655.317 15.5513V748.243C655.317 752.332 653.693 756.253 650.801 759.144C647.91 762.035 643.989 763.659 639.9 763.659V763.659ZM118.557 0.674987C114.652 0.682139 110.909 2.23839 108.15 5.00215C105.391 7.7659 103.842 11.5113 103.842 15.4163V748.243C103.842 752.148 105.391 755.894 108.15 758.657C110.909 761.421 114.652 762.977 118.557 762.984H639.9C643.808 762.977 647.553 761.422 650.316 758.659C653.079 755.896 654.635 752.151 654.642 748.243V15.4163C654.635 11.5089 653.079 7.76348 650.316 5.0005C647.553 2.23751 643.808 0.682124 639.9 0.674987H118.557Z" fill="#EBEBEB"/>
<path d="M1223.94 763.659H702.567C698.48 763.652 694.563 762.026 691.673 759.136C688.784 756.247 687.157 752.33 687.15 748.243V15.4163C687.193 11.3533 688.835 7.47078 691.721 4.6103C694.607 1.74983 698.504 0.14189 702.567 0.13501H1223.94C1227.99 0.149061 1231.88 1.76101 1234.76 4.62147C1237.63 7.48193 1239.26 11.3604 1239.3 15.4163V748.243C1239.3 752.322 1237.68 756.235 1234.8 759.125C1231.92 762.015 1228.02 763.645 1223.94 763.659V763.659ZM702.567 0.674987C698.659 0.682124 694.914 2.23751 692.151 5.0005C689.388 7.76348 687.832 11.5089 687.825 15.4163V748.243C687.832 752.151 689.388 755.896 692.151 758.659C694.914 761.422 698.659 762.977 702.567 762.984H1223.94C1227.84 762.977 1231.59 761.422 1234.35 758.659C1237.12 755.896 1238.67 752.151 1238.68 748.243V15.4163C1238.67 11.5089 1237.12 7.76348 1234.35 5.0005C1231.59 2.23751 1227.84 0.682124 1223.94 0.674987H702.567Z" fill="#EBEBEB"/>
<path d="M220.212 838.014C219.564 830.292 220.617 820.303 229.635 817.333C244.89 812.311 253.935 800.486 253.422 787.121C252.909 773.757 268.974 760.743 281.016 773.271C293.058 785.798 291.465 763.632 307.53 758.26C323.595 752.887 337.23 765.927 332.802 777.888C328.374 789.848 344.277 797.273 363.258 787.121C382.239 776.97 403.11 795.437 399.087 809.881C395.064 824.326 398.358 825.945 410.373 821.14C420.093 817.252 435.969 825.405 437.724 838.014H220.212Z" fill="#E0E0E0"/>
<path d="M977.589 838.014C976.86 831.912 977.184 823.003 984.744 820.492C996.597 816.577 1003.64 807.397 1003.24 797.03C1002.83 786.662 1015.31 776.565 1024.65 786.23C1033.99 795.896 1032.75 778.752 1045.22 774.567C1057.7 770.382 1068.28 780.534 1064.85 789.794C1061.42 799.055 1073.76 804.859 1088.48 796.976C1103.19 789.092 1119.42 803.429 1116.32 814.66C1113.21 825.891 1115.75 827.133 1125.06 823.381C1132.97 820.222 1146.1 827.349 1146.39 837.96L977.589 838.014Z" fill="#E0E0E0"/>
<path d="M1055.21 838.014H777.897C774.009 825 784.08 809.395 795.069 807.208C808.569 804.508 822.069 780.75 822.798 765.63C823.527 750.511 847.8 703.992 885.6 732.719C923.4 761.445 911.925 736.931 939.249 728.858C966.573 720.785 983.853 744.004 971.865 761.445C971.865 761.445 999.324 754.561 1010.64 780.21C1021.95 805.858 1010.64 821.788 1010.64 821.788C1010.64 821.788 1045.28 820.897 1055.21 838.014Z" fill="#E0E0E0"/>
<path d="M551.475 110.209C551.481 108.165 551.006 106.149 550.089 104.322C549.172 102.496 547.839 100.911 546.197 99.6942C544.555 98.4777 542.649 97.6642 540.635 97.3192C538.621 96.9743 536.553 97.1076 534.6 97.7085C535.151 93.7873 534.856 89.7937 533.736 85.9958C532.616 82.1979 530.696 78.6837 528.105 75.689C525.515 72.6944 522.313 70.2888 518.716 68.6336C515.119 66.9785 511.209 66.1122 507.249 66.093C505.545 66.0901 503.845 66.2529 502.173 66.5789C499.453 62.101 495.349 58.6297 490.482 56.6893C485.615 54.7489 480.249 54.4447 475.194 55.8228C470.139 57.2008 465.669 60.1862 462.461 64.3281C459.252 68.47 457.478 73.5435 457.407 78.7823H457.002C451.101 78.7823 445.443 81.1262 441.27 85.2983C437.098 89.4705 434.754 95.1291 434.754 101.029C434.754 106.93 437.098 112.588 441.27 116.76C445.443 120.932 451.101 123.276 457.002 123.276H538.704C542.123 123.212 545.379 121.806 547.769 119.361C550.158 116.915 551.49 113.628 551.475 110.209V110.209Z" fill="#F5F5F5"/>
<path d="M1035.4 187.101C1035.4 185.07 1034.92 183.067 1034.01 181.251C1033.1 179.435 1031.78 177.857 1030.15 176.643C1028.52 175.429 1026.63 174.612 1024.63 174.258C1022.63 173.903 1020.58 174.021 1018.63 174.601C1019.21 170.677 1018.94 166.673 1017.83 162.864C1016.73 159.054 1014.81 155.528 1012.22 152.527C1009.62 149.525 1006.41 147.119 1002.8 145.472C999.194 143.826 995.272 142.977 991.305 142.985C989.592 142.981 987.883 143.144 986.202 143.471C983.482 138.993 979.378 135.522 974.511 133.582C969.644 131.641 964.278 131.337 959.223 132.715C954.168 134.093 949.699 137.079 946.49 141.221C943.281 145.362 941.507 150.436 941.436 155.675H941.058C935.158 155.675 929.499 158.019 925.326 162.191C921.154 166.363 918.81 172.021 918.81 177.922C918.81 183.822 921.154 189.481 925.326 193.653C929.499 197.825 935.158 200.169 941.058 200.169H1022.73C1026.13 200.077 1029.36 198.658 1031.73 196.216C1034.09 193.774 1035.41 190.502 1035.4 187.101V187.101Z" fill="#F5F5F5"/>
<path d="M739.449 149.276C739.449 147.128 738.596 145.068 737.077 143.549C735.558 142.03 733.497 141.176 731.349 141.176C730.564 141.174 729.782 141.283 729.027 141.5C729.159 140.679 729.222 139.848 729.216 139.017C729.216 136.762 728.772 134.529 727.909 132.445C727.046 130.362 725.781 128.469 724.186 126.875C722.592 125.28 720.699 124.015 718.615 123.152C716.532 122.29 714.299 121.845 712.044 121.845C710.984 121.848 709.927 121.947 708.885 122.142C707.198 119.347 704.645 117.178 701.614 115.963C698.583 114.749 695.239 114.557 692.088 115.414C688.938 116.272 686.153 118.134 684.155 120.717C682.158 123.3 681.058 126.464 681.021 129.729H680.778C677.112 129.729 673.595 131.185 671.003 133.778C668.41 136.37 666.954 139.886 666.954 143.552C666.954 147.219 668.41 150.735 671.003 153.327C673.595 155.919 677.112 157.376 680.778 157.376H731.7C733.787 157.285 735.758 156.392 737.202 154.883C738.646 153.374 739.451 151.365 739.449 149.276V149.276Z" fill="#F5F5F5"/>
<path d="M1163 133.428C1163 131.28 1162.14 129.219 1160.63 127.7C1159.11 126.181 1157.05 125.328 1154.9 125.328C1154.11 125.319 1153.33 125.438 1152.58 125.679C1152.69 124.847 1152.74 124.008 1152.74 123.168C1152.74 118.621 1150.93 114.261 1147.72 111.045C1144.5 107.83 1140.14 106.024 1135.59 106.024C1134.53 106.018 1133.46 106.108 1132.41 106.294C1130.72 103.504 1128.17 101.34 1125.15 100.13C1122.12 98.9196 1118.78 98.7289 1115.64 99.5867C1112.49 100.444 1109.71 102.304 1107.72 104.884C1105.73 107.463 1104.63 110.622 1104.6 113.881H1104.3C1100.74 114.038 1097.37 115.565 1094.9 118.142C1092.44 120.72 1091.06 124.15 1091.06 127.717C1091.06 131.285 1092.44 134.715 1094.9 137.293C1097.37 139.87 1100.74 141.397 1104.3 141.554H1155.09C1157.21 141.505 1159.22 140.626 1160.7 139.107C1162.18 137.587 1163.01 135.548 1163 133.428V133.428Z" fill="#F5F5F5"/>
<path d="M283.284 182.431C283.284 180.282 282.431 178.222 280.912 176.703C279.393 175.184 277.332 174.331 275.184 174.331C274.396 174.322 273.612 174.441 272.862 174.682C272.98 173.85 273.043 173.011 273.051 172.171C273.051 167.617 271.242 163.249 268.021 160.029C264.801 156.809 260.433 155 255.879 155C254.81 155.002 253.744 155.102 252.693 155.297C251.008 152.507 248.458 150.343 245.432 149.133C242.406 147.922 239.068 147.732 235.923 148.589C232.779 149.447 230 151.307 228.007 153.886C226.015 156.466 224.918 159.624 224.883 162.883H224.64C220.974 162.883 217.457 164.34 214.865 166.932C212.272 169.525 210.816 173.041 210.816 176.707C210.816 180.373 212.272 183.889 214.865 186.481C217.457 189.074 220.974 190.53 224.64 190.53H275.4C277.511 190.474 279.516 189.596 280.988 188.083C282.461 186.57 283.285 184.542 283.284 182.431V182.431Z" fill="#F5F5F5"/>
<path d="M1028.02 413.621C1028.45 411.968 1028.7 410.276 1028.78 408.572C1029.4 398.042 1039.58 399.716 1047.98 398.285C1054.65 397.178 1036.99 380.331 1050.43 374.878C1053.06 374.177 1055.36 372.583 1056.94 370.369C1057.62 368.713 1057.69 366.873 1057.16 365.167C1056.62 363.461 1055.5 361.997 1054 361.027C1050.92 359.184 1047.37 358.292 1043.79 358.462C1041.61 355.762 1043.39 351.794 1045.52 349.067C1047.65 346.34 1050.25 343.235 1049.44 339.887C1048.22 334.811 1041.12 334.487 1035.94 335.621C1034.05 332.543 1034.1 328.71 1033.24 325.227C1032.37 321.744 1029.54 318.099 1025.97 318.531C1022.41 318.963 1020.57 322.743 1017.22 323.526C1013.39 324.417 1010.07 321.042 1007.07 318.504C1004.08 315.966 998.811 314.373 996.732 317.721C995.49 319.719 996.219 322.527 994.95 324.498C992.709 327.927 987.417 325.794 984.15 323.364C980.883 320.934 975.618 318.747 973.35 322.095C972.776 323.214 972.349 324.403 972.081 325.632C970.515 330.114 965.655 332.354 961.875 335.243C958.095 338.132 955.098 343.856 958.311 347.366C959.877 349.094 962.658 349.796 963.441 352.01C964.413 354.709 961.605 357.247 959.364 359.137C955.665 362.296 954.99 371.773 959.904 374.338C961.956 375.444 964.98 375.768 965.493 378.036C966.006 380.304 963.873 381.654 962.496 383.22C961.634 384.337 961.024 385.627 960.706 387.001C960.389 388.375 960.372 389.802 960.656 391.184C960.941 392.565 961.52 393.869 962.355 395.006C963.19 396.143 964.26 397.087 965.493 397.772C966.681 398.339 968.193 398.798 968.571 400.04C968.748 400.95 968.645 401.891 968.274 402.74C967.769 404.493 967.613 406.327 967.815 408.14C967.802 408.756 968.024 409.355 968.436 409.814C968.901 410.115 969.448 410.266 970.002 410.246C977.103 410.57 980.532 408.059 984.852 414.215C985.231 414.836 985.737 415.369 986.337 415.781C986.942 416.086 987.604 416.261 988.281 416.294C993.168 416.672 996.381 413.594 1000.81 413.081C1006.99 412.271 1008.31 415.484 1013.77 418.021C1022.25 421.963 1026.4 419.479 1028.02 413.621Z" fill="#EBEBEB"/>
<path d="M946.296 404.792C946.721 403.14 946.974 401.448 947.052 399.743C947.673 389.214 957.717 390.888 966.249 389.457C972.918 388.35 955.26 371.503 968.706 366.049C971.325 365.33 973.62 363.74 975.213 361.54C975.889 359.884 975.965 358.044 975.427 356.338C974.89 354.632 973.773 353.168 972.27 352.199C969.209 350.311 965.658 349.372 962.064 349.499C959.877 346.799 961.659 342.83 963.765 340.103C965.871 337.376 968.49 334.271 967.707 330.924C966.492 325.848 959.391 325.659 954.207 326.658C952.317 323.58 952.371 319.746 951.507 316.263C950.643 312.78 947.808 309.136 944.244 309.568C940.68 310 938.844 313.779 935.496 314.562C931.662 315.453 928.341 312.078 925.344 309.541C922.347 307.003 917.082 305.383 915.003 308.758C913.761 310.755 914.49 313.563 913.221 315.534C910.98 318.963 905.688 316.83 902.421 314.4C899.154 311.97 893.889 309.757 891.621 313.131C891.047 314.25 890.62 315.439 890.352 316.668C888.786 321.15 883.926 323.391 880.146 326.28C876.366 329.169 873.369 334.865 876.582 338.402C878.148 340.13 880.929 340.832 881.712 343.046C882.684 345.746 879.876 348.284 877.635 350.174C873.909 353.332 873.234 362.782 878.148 365.374C880.227 366.481 883.251 366.805 883.764 369.073C884.277 371.341 882.144 372.691 880.767 374.257C879.905 375.373 879.295 376.663 878.977 378.037C878.66 379.412 878.643 380.839 878.927 382.22C879.212 383.602 879.791 384.906 880.626 386.043C881.461 387.18 882.531 388.123 883.764 388.809C884.952 389.376 886.464 389.835 886.815 391.077C887.001 391.983 886.907 392.925 886.545 393.777C886.057 395.486 885.902 397.273 886.086 399.041C886.073 399.658 886.295 400.256 886.707 400.715C887.172 401.017 887.719 401.167 888.273 401.147C895.374 401.471 898.803 398.96 903.123 405.116C903.494 405.743 904.002 406.278 904.608 406.682C905.209 406.994 905.875 407.161 906.552 407.168C911.439 407.573 914.652 404.468 919.08 403.982C925.263 403.172 926.586 406.358 932.04 408.923C940.518 413.216 944.676 410.651 946.296 404.792Z" fill="#EBEBEB"/>
<path d="M938.412 352.766C938.834 351.103 939.088 349.403 939.168 347.69C939.789 337.16 949.968 338.834 958.392 337.403C965.061 336.296 947.376 319.449 960.849 313.995C963.465 313.287 965.755 311.694 967.329 309.487C968.007 307.834 968.088 305.996 967.555 304.29C967.023 302.585 965.911 301.118 964.413 300.145C961.342 298.257 957.782 297.318 954.18 297.445C951.993 294.745 953.775 290.776 955.908 288.05C958.041 285.323 960.633 282.218 959.823 278.87C958.608 273.794 951.507 273.605 946.323 274.604C944.433 271.526 944.46 267.693 943.623 264.21C942.786 260.727 939.924 257.082 936.36 257.514C932.796 257.946 930.96 261.726 927.639 262.509C923.805 263.427 920.484 260.025 917.46 257.487C914.436 254.949 909.198 253.356 907.119 256.704C905.877 258.702 906.633 261.51 905.337 263.481C903.096 266.91 897.804 264.777 894.537 262.347C891.27 259.917 886.005 257.73 883.737 261.105C883.159 262.213 882.732 263.393 882.468 264.615C880.902 269.097 876.042 271.337 872.262 274.226C868.482 277.115 865.485 282.839 868.698 286.349C870.264 288.077 873.045 288.779 873.828 290.992C874.827 293.692 871.992 296.23 869.751 298.12C866.052 301.279 865.377 310.756 870.291 313.347C872.343 314.427 875.367 314.751 875.88 317.019C876.393 319.287 874.26 320.637 872.883 322.23C872.022 323.345 871.411 324.632 871.094 326.005C870.777 327.377 870.76 328.802 871.044 330.181C871.329 331.561 871.909 332.862 872.743 333.997C873.578 335.132 874.648 336.073 875.88 336.755C877.068 337.322 878.58 337.781 878.958 339.023C879.129 339.933 879.025 340.872 878.661 341.723C878.197 343.437 878.042 345.22 878.202 346.988C878.203 347.599 878.435 348.187 878.85 348.635C879.302 348.943 879.843 349.094 880.389 349.067C887.49 349.391 890.919 346.88 895.239 353.036C895.625 353.659 896.129 354.2 896.724 354.629C897.34 354.925 898.011 355.091 898.695 355.114C903.555 355.519 906.795 352.415 911.196 351.902C917.406 351.119 918.702 354.305 924.156 356.869C932.634 361.081 936.9 358.597 938.412 352.766Z" fill="#EBEBEB"/>
<path d="M884.574 378.684C885.001 377.023 885.254 375.322 885.33 373.609C885.951 363.106 896.13 364.753 904.554 363.322C911.223 362.215 893.538 345.368 907.011 339.941C909.625 339.212 911.911 337.611 913.491 335.405C914.171 333.754 914.248 331.917 913.71 330.214C913.172 328.511 912.053 327.052 910.548 326.091C907.484 324.223 903.925 323.329 900.342 323.526C898.155 320.826 899.937 316.83 902.07 314.103C904.203 311.376 906.795 308.299 905.985 304.924C904.77 299.848 897.669 299.686 892.485 300.658C890.595 297.607 890.622 293.773 889.785 290.29C888.948 286.808 886.086 283.136 882.522 283.568C878.958 284 877.122 287.807 873.801 288.563C869.967 289.481 866.646 286.079 863.622 283.541C860.598 281.003 855.36 279.41 853.281 282.758C852.039 284.756 852.795 287.564 851.499 289.535C849.258 292.963 843.966 290.83 840.699 288.401C837.432 285.971 832.167 283.784 829.899 287.159C829.321 288.266 828.894 289.447 828.63 290.668C827.064 295.15 822.204 297.391 818.424 300.28C814.644 303.169 811.647 308.893 814.86 312.402C816.426 314.13 819.207 314.832 819.99 317.046C820.989 319.746 818.154 322.284 815.913 324.174C812.214 327.36 811.539 336.809 816.453 339.401C818.505 340.481 821.529 340.805 822.042 343.1C822.555 345.395 820.422 346.718 819.045 348.284C818.184 349.398 817.573 350.686 817.256 352.058C816.939 353.431 816.922 354.855 817.206 356.235C817.491 357.614 818.071 358.916 818.905 360.051C819.74 361.186 820.81 362.126 822.042 362.809C823.23 363.376 824.742 363.835 825.12 365.077C825.291 365.986 825.187 366.926 824.823 367.777C824.359 369.491 824.204 371.273 824.364 373.042C824.355 373.649 824.577 374.238 824.985 374.689C825.45 374.99 825.997 375.141 826.551 375.121C833.652 375.444 837.081 372.934 841.401 379.116C841.786 379.733 842.291 380.265 842.886 380.682C843.501 380.982 844.173 381.148 844.857 381.168C849.717 381.573 852.957 378.468 857.358 377.955C863.568 377.172 864.864 380.358 870.318 382.923C878.796 387 882.9 384.516 884.574 378.684Z" fill="#EBEBEB"/>
<path d="M830.169 366.697C830.594 365.044 830.847 363.353 830.925 361.648C831.546 351.119 841.59 352.793 850.122 351.362C856.791 350.255 839.133 333.38 852.579 327.954C855.205 327.236 857.504 325.634 859.086 323.418C859.76 321.766 859.835 319.93 859.297 318.229C858.76 316.528 857.644 315.068 856.143 314.103C853.067 312.263 849.517 311.371 845.937 311.538C843.75 308.839 845.532 304.87 847.638 302.143C849.744 299.416 852.363 296.311 851.58 292.963C850.338 287.888 843.264 287.564 838.08 288.698C836.19 285.62 836.244 281.786 835.38 278.303C834.516 274.82 831.681 271.175 828.117 271.607C824.553 272.039 822.717 275.819 819.369 276.602C815.535 277.493 812.214 274.118 809.217 271.553C806.22 268.988 800.928 267.423 798.876 270.797C797.634 272.795 798.363 275.576 797.067 277.574C794.853 280.976 789.534 278.87 786.267 276.44C783 274.01 777.735 271.796 775.467 275.171C774.889 276.288 774.462 277.478 774.198 278.708C772.632 283.19 767.772 285.431 763.992 288.293C760.212 291.154 757.215 296.905 760.428 300.442C761.994 302.17 764.775 302.872 765.558 305.086C766.53 307.786 763.722 310.324 761.481 312.213C757.755 315.372 757.08 324.822 761.994 327.414C764.073 328.494 767.097 328.845 767.61 331.113C768.123 333.38 765.99 334.73 764.613 336.296C763.751 337.413 763.141 338.703 762.823 340.077C762.506 341.452 762.489 342.878 762.773 344.26C763.058 345.642 763.637 346.945 764.472 348.082C765.307 349.22 766.377 350.163 767.61 350.849C768.798 351.416 770.31 351.875 770.661 353.117C770.847 354.023 770.753 354.965 770.391 355.816C769.906 357.526 769.742 359.311 769.905 361.081C769.866 361.376 769.897 361.677 769.997 361.958C770.096 362.239 770.26 362.492 770.476 362.697C770.692 362.903 770.953 363.054 771.239 363.139C771.524 363.224 771.826 363.241 772.119 363.187C779.22 363.511 782.622 360.973 786.969 367.156C787.332 367.788 787.842 368.325 788.454 368.722C789.055 369.034 789.721 369.2 790.398 369.208C795.285 369.613 798.498 366.508 802.926 365.995C809.109 365.212 810.432 368.398 815.886 370.963C824.391 375.04 828.549 372.556 830.169 366.697Z" fill="#EBEBEB"/>
<path d="M829.44 424.906C829.777 423.598 829.985 422.259 830.061 420.91C830.547 412.649 838.458 413.945 845.181 412.811C850.419 411.92 836.514 398.663 847.098 394.371C849.164 393.802 850.975 392.545 852.228 390.807C852.76 389.504 852.819 388.057 852.395 386.715C851.971 385.374 851.09 384.223 849.906 383.463C847.469 381.995 844.648 381.29 841.806 381.438C840.078 379.359 841.482 376.038 843.156 374.041C844.83 372.043 846.882 369.451 846.261 366.805C845.289 362.809 839.7 362.674 835.677 363.457C834.566 360.875 833.83 358.148 833.49 355.357C832.761 352.658 830.601 349.742 827.766 349.958C824.931 350.174 823.5 353.252 820.908 353.872C817.884 354.601 815.265 351.929 812.808 349.904C810.351 347.879 806.301 346.664 804.708 349.31C803.736 350.876 804.303 353.09 803.304 354.709C801.522 357.409 797.364 355.735 794.772 353.818C792.18 351.902 788.049 350.174 786.24 352.847C785.779 353.696 785.434 354.605 785.214 355.546C783.999 359.083 780.165 360.946 777.114 363.133C774.063 365.32 771.714 369.91 774.414 372.664C775.656 374.041 777.843 374.58 778.464 376.335C779.085 378.09 777.006 380.439 775.251 381.951C772.335 384.435 771.795 391.887 775.656 393.912C777.276 394.776 779.679 395.046 780.057 396.827C780.435 398.609 778.788 399.689 777.708 400.904C777.027 401.781 776.545 402.795 776.293 403.877C776.041 404.958 776.026 406.081 776.249 407.168C776.472 408.256 776.928 409.282 777.586 410.177C778.243 411.072 779.086 411.814 780.057 412.352C781.002 412.811 782.136 413.162 782.487 414.134C782.63 414.868 782.555 415.628 782.271 416.321C781.889 417.662 781.761 419.063 781.893 420.451C781.889 420.691 781.932 420.928 782.02 421.151C782.108 421.373 782.239 421.576 782.406 421.747C782.759 422 783.188 422.124 783.621 422.098C789.21 422.341 791.91 420.37 795.312 425.23C795.611 425.718 796.006 426.141 796.473 426.472C796.949 426.717 797.476 426.847 798.012 426.85C801.873 427.174 804.384 424.771 807.894 424.339C812.754 423.718 813.78 426.229 818.073 428.227C824.904 431.467 828.171 429.415 829.44 424.906Z" fill="#EBEBEB"/>
<path d="M798.957 404.792C799.382 403.14 799.635 401.448 799.713 399.743C800.361 389.214 810.378 390.888 818.937 389.457C825.606 388.35 807.921 371.503 821.394 366.049C824.006 365.331 826.293 363.739 827.874 361.54C828.552 359.887 828.632 358.049 828.1 356.344C827.568 354.638 826.456 353.172 824.958 352.199C821.887 350.311 818.327 349.372 814.725 349.499C812.538 346.799 814.32 342.83 816.453 340.103C818.586 337.376 821.178 334.271 820.368 330.924C819.153 325.848 812.052 325.659 806.868 326.658C804.978 323.58 805.005 319.746 804.168 316.263C803.331 312.78 800.469 309.136 796.905 309.568C793.341 310 791.505 313.779 788.184 314.562C784.35 315.453 781.029 312.078 778.005 309.541C774.981 307.003 769.743 305.383 767.664 308.758C766.422 310.755 767.178 313.563 765.882 315.534C763.641 318.963 758.349 316.83 755.082 314.4C751.815 311.97 746.55 309.757 744.282 313.131C743.708 314.25 743.281 315.439 743.013 316.668C741.447 321.15 736.614 323.391 732.834 326.28C729.054 329.169 726.03 334.865 729.243 338.402C730.809 340.13 733.59 340.832 734.373 343.046C735.372 345.746 732.537 348.284 730.296 350.174C726.597 353.332 725.922 362.782 730.836 365.374C732.888 366.481 735.912 366.805 736.425 369.073C736.938 371.341 734.805 372.691 733.455 374.257C732.588 375.37 731.972 376.658 731.65 378.032C731.328 379.406 731.307 380.834 731.589 382.216C731.872 383.599 732.45 384.905 733.285 386.043C734.119 387.181 735.191 388.124 736.425 388.809C737.613 389.376 739.125 389.835 739.503 391.077C739.68 391.986 739.577 392.928 739.206 393.777C738.745 395.491 738.59 397.273 738.747 399.041C738.741 399.662 738.973 400.26 739.395 400.715C739.847 401.023 740.388 401.175 740.934 401.147C748.035 401.471 751.464 398.96 755.784 405.116C756.163 405.737 756.669 406.271 757.269 406.682C757.88 406.992 758.555 407.158 759.24 407.168C764.1 407.573 767.34 404.468 771.768 403.982C777.951 403.172 779.247 406.358 784.701 408.923C793.206 413.216 797.337 410.651 798.957 404.792Z" fill="#EBEBEB"/>
<path d="M884.574 314.643C884.999 312.991 885.252 311.299 885.33 309.595C885.951 299.065 896.13 300.739 904.554 299.308C911.223 298.201 893.538 281.354 907.011 275.9C909.627 275.192 911.917 273.598 913.491 271.391C914.172 269.736 914.251 267.894 913.713 266.187C913.175 264.48 912.055 263.016 910.548 262.05C907.473 260.207 903.922 259.314 900.342 259.485C898.155 256.785 899.937 252.816 902.07 250.089C904.203 247.362 906.795 244.258 905.985 240.91C904.77 235.834 897.669 235.51 892.485 236.644C890.595 233.566 890.622 229.732 889.785 226.249C888.948 222.767 886.086 219.122 882.522 219.554C878.958 219.986 877.122 223.766 873.801 224.548C869.967 225.466 866.646 222.065 863.622 219.527C860.598 216.989 855.36 215.396 853.281 218.744C852.039 220.742 852.795 223.55 851.499 225.52C849.258 228.949 843.966 226.816 840.699 224.386C837.432 221.957 832.167 219.77 829.899 223.118C829.325 224.237 828.898 225.425 828.63 226.654C827.064 231.136 822.204 233.377 818.424 236.266C814.644 239.155 811.647 244.879 814.86 248.388C816.426 250.116 819.207 250.818 819.99 253.032C820.989 255.732 818.154 258.27 815.913 260.16C812.214 263.319 811.539 272.795 816.453 275.36C818.505 276.467 821.529 276.791 822.042 279.059C822.555 281.327 820.422 282.677 819.045 284.243C818.183 285.36 817.573 286.649 817.255 288.024C816.938 289.398 816.921 290.825 817.205 292.206C817.49 293.588 818.069 294.892 818.904 296.029C819.739 297.166 820.809 298.11 822.042 298.795C823.23 299.362 824.742 299.821 825.12 301.063C825.291 301.972 825.187 302.912 824.823 303.763C824.343 305.52 824.188 307.35 824.364 309.163C824.355 309.77 824.577 310.359 824.985 310.809C825.45 311.111 825.997 311.262 826.551 311.241C833.652 311.565 837.081 309.055 841.401 315.21C841.787 315.833 842.291 316.375 842.886 316.803C843.501 317.103 844.173 317.269 844.857 317.289C849.717 317.694 852.957 314.589 857.358 314.076C863.568 313.266 864.864 316.479 870.318 319.044C878.796 322.986 882.9 320.502 884.574 314.643Z" fill="#EBEBEB"/>
<path d="M954.477 318.234C954.904 316.573 955.157 314.872 955.233 313.158C955.854 302.656 965.898 304.303 974.457 302.899C981.126 301.765 963.441 284.918 976.914 279.491C979.528 278.762 981.814 277.161 983.394 274.955C984.074 273.304 984.151 271.466 983.613 269.764C983.075 268.061 981.956 266.602 980.451 265.641C977.402 263.726 973.842 262.784 970.245 262.941C968.058 260.241 969.84 256.245 971.973 253.518C974.106 250.791 976.698 247.713 975.888 244.339C974.673 239.263 967.572 239.101 962.388 240.073C960.498 237.022 960.525 233.188 959.688 229.705C958.851 226.222 955.989 222.551 952.425 223.01C948.861 223.469 947.025 227.221 943.704 227.977C939.87 228.895 936.549 225.493 933.525 222.956C930.501 220.418 925.263 218.825 923.184 222.173C921.942 224.171 922.698 226.978 921.402 228.949C919.161 232.378 913.869 230.245 910.602 227.815C907.335 225.385 902.07 223.199 899.802 226.573C899.224 227.681 898.797 228.862 898.533 230.083C896.967 234.565 892.107 236.806 888.327 239.695C884.547 242.584 881.55 248.307 884.763 251.817C886.329 253.545 889.11 254.247 889.893 256.461C890.892 259.161 888.057 261.699 885.816 263.616C882.117 266.774 881.442 276.224 886.356 278.816C888.408 279.896 891.432 280.22 891.945 282.515C892.458 284.81 890.325 286.133 888.948 287.699C888.087 288.813 887.476 290.101 887.159 291.473C886.842 292.845 886.825 294.27 887.109 295.65C887.394 297.029 887.974 298.331 888.808 299.466C889.643 300.6 890.713 301.541 891.945 302.224C893.133 302.791 894.645 303.277 895.023 304.492C895.195 305.401 895.092 306.341 894.726 307.192C894.264 308.906 894.109 310.688 894.267 312.456C894.253 313.065 894.475 313.656 894.888 314.103C895.353 314.405 895.9 314.555 896.454 314.535C903.555 314.859 906.984 312.348 911.304 318.531C911.689 319.148 912.194 319.68 912.789 320.097C913.4 320.409 914.074 320.576 914.76 320.583C919.62 320.988 922.86 317.883 927.261 317.37C933.471 316.587 934.767 319.773 940.221 322.338C948.699 326.55 952.857 324.12 954.477 318.234Z" fill="#EBEBEB"/>
<path d="M996.948 346.826C997.373 345.173 997.626 343.481 997.704 341.777C998.325 331.247 1008.5 332.921 1016.9 331.49C1023.57 330.384 1005.91 313.536 1019.36 308.083C1021.98 307.374 1024.28 305.781 1025.87 303.574C1026.54 301.918 1026.62 300.078 1026.08 298.372C1025.54 296.666 1024.43 295.202 1022.92 294.232C1019.86 292.345 1016.31 291.406 1012.72 291.532C1010.53 288.832 1012.31 284.864 1014.42 282.137C1016.52 279.41 1019.14 276.305 1018.33 272.957C1017.12 267.881 1010.04 267.692 1004.83 268.691C1002.94 265.614 1002.97 261.78 1002.13 258.297C1001.3 254.814 998.46 251.169 994.869 251.601C991.278 252.033 989.469 255.813 986.148 256.596C982.314 257.487 978.993 254.112 975.996 251.574C972.999 249.036 967.707 247.443 965.655 250.791C964.413 252.789 965.142 255.597 963.846 257.568C961.632 260.997 956.313 258.864 953.046 256.434C949.779 254.004 944.514 251.817 942.246 255.165C941.663 256.283 941.228 257.472 940.95 258.702C939.411 263.184 934.551 265.425 930.771 268.313C926.991 271.202 923.994 276.899 927.18 280.436C928.773 282.164 931.554 282.866 932.337 285.08C933.309 287.78 930.501 290.317 928.26 292.207C924.534 295.366 923.859 304.843 928.773 307.408C930.852 308.515 933.876 308.839 934.389 311.106C934.902 313.374 932.769 314.724 931.392 316.29C930.521 317.404 929.903 318.693 929.581 320.069C929.258 321.445 929.239 322.875 929.524 324.26C929.809 325.644 930.392 326.95 931.232 328.087C932.072 329.223 933.149 330.164 934.389 330.843C935.55 331.409 937.089 331.868 937.44 333.11C937.626 334.017 937.532 334.959 937.17 335.81C936.67 337.564 936.505 339.396 936.684 341.21C936.678 341.83 936.91 342.429 937.332 342.884C937.797 343.185 938.344 343.336 938.898 343.316C945.999 343.64 949.401 341.129 953.748 347.285C954.111 347.917 954.621 348.454 955.233 348.851C955.837 349.159 956.5 349.334 957.177 349.364C962.064 349.742 965.277 346.664 969.705 346.151C975.888 345.341 977.211 348.554 982.638 351.092C991.17 355.168 995.328 352.685 996.948 346.826Z" fill="#EBEBEB"/>
<path d="M984.069 383.004C984.069 383.004 966.303 408.086 960.174 416.051C954.045 424.015 923.454 473.612 919.269 506.415C918.837 509.925 918.405 512.922 917.973 515.568C931.122 602.477 929.07 761.499 928.611 788.714H886.896C886.491 758.017 882.954 477.392 881.658 468.833C880.254 459.762 862.758 425.23 835.758 411.056C808.758 396.882 785.7 349.931 785.7 349.931H794.286C794.286 349.931 810.216 378.711 832.869 394.614C836.126 396.864 839.537 398.885 843.075 400.661C843.017 383.35 846.062 366.168 852.066 349.931L856.71 354.223C850.446 379.845 851.31 396.261 853.173 405.683C861.735 409.694 869.637 414.983 876.609 421.369C900.099 390.807 913.302 320.934 913.302 320.934L919.323 324.201C917.616 338.639 915.019 352.957 911.547 367.075C907.146 385.164 894.186 419.209 888.165 434.572C895.381 444.937 901.344 456.121 905.931 467.888C906.569 466.895 907.331 465.988 908.199 465.188C923.508 451.365 952.263 385.974 952.263 385.974C959.229 370.774 948.591 330.87 948.591 330.87H956.691L960.282 365.779L980.505 343.721L984.177 346.799L962.739 374.338L951.723 409.247L980.505 377.388L984.069 383.004Z" fill="#E6E6E6"/>
<path d="M225.882 507.252C225.541 505.982 225.342 504.678 225.288 503.364C224.802 495.265 217.188 496.588 210.546 495.481C205.416 494.644 218.97 481.711 208.656 477.527C206.654 476.975 204.901 475.756 203.688 474.071C203.164 472.8 203.102 471.387 203.511 470.075C203.921 468.764 204.776 467.636 205.929 466.889C208.291 465.486 211.015 464.81 213.759 464.945C215.46 462.893 214.083 459.815 212.463 457.71C210.843 455.604 208.818 453.255 209.439 450.663C210.384 446.775 215.811 446.64 219.753 447.396C220.832 444.856 221.541 442.173 221.859 439.431C222.588 436.732 224.559 434.032 227.448 434.302C230.337 434.572 231.606 437.515 234.144 438.135C237.087 438.81 239.544 436.219 241.947 434.275C244.35 432.331 248.292 431.089 249.885 433.654C250.83 435.193 250.263 437.353 251.262 438.864C252.963 441.564 257.04 439.863 259.551 438C262.062 436.138 266.112 434.437 267.867 437.029C268.319 437.88 268.655 438.788 268.866 439.728C270.054 443.184 273.78 444.885 276.669 447.099C279.558 449.313 281.88 453.714 279.369 456.414C278.154 457.737 276.021 458.277 275.427 459.977C274.671 462.083 276.831 464 278.559 465.377C281.259 467.807 281.907 475.043 278.154 477.041C276.561 477.878 274.239 478.121 273.861 479.876C273.483 481.63 275.103 482.575 276.156 483.844C276.817 484.702 277.286 485.692 277.53 486.747C277.774 487.803 277.787 488.898 277.57 489.959C277.352 491.02 276.908 492.021 276.268 492.895C275.628 493.769 274.807 494.494 273.861 495.022C272.943 495.454 271.836 495.805 271.512 496.75C271.356 497.457 271.432 498.195 271.728 498.856C272.089 500.173 272.207 501.545 272.079 502.905C272.078 503.366 271.905 503.809 271.593 504.147C271.24 504.4 270.811 504.524 270.378 504.498C264.978 504.741 262.278 502.824 258.984 507.549C258.702 508.034 258.314 508.449 257.85 508.764C257.385 508.987 256.88 509.116 256.365 509.142C252.612 509.439 250.182 507.09 246.753 506.658C242.001 506.064 241.002 508.521 236.817 510.465C230.283 513.651 227.097 511.734 225.882 507.252Z" fill="#EBEBEB"/>
<path d="M288.576 500.476C288.248 499.203 288.049 497.9 287.982 496.588C287.523 488.488 279.882 489.811 273.267 488.704C268.137 487.867 281.691 474.935 271.377 470.75C269.359 470.171 267.598 468.924 266.382 467.213C265.863 465.944 265.805 464.532 266.22 463.225C266.634 461.918 267.494 460.797 268.65 460.058C271.004 458.632 273.732 457.946 276.48 458.088C278.154 456.036 276.777 452.958 275.157 450.852C273.537 448.746 271.539 446.397 272.16 443.805C273.078 439.917 278.532 439.782 282.447 440.538C283.56 437.961 284.279 435.23 284.58 432.439C285.282 429.739 287.28 427.039 290.142 427.309C293.004 427.579 294.327 430.549 296.865 431.143C299.808 431.818 302.265 429.226 304.641 427.282C307.017 425.338 310.986 424.096 312.579 426.661C313.551 428.2 312.957 430.36 313.956 431.872C315.684 434.572 319.734 432.871 322.272 431.008C324.81 429.145 328.806 427.444 330.588 430.036C331.031 430.889 331.358 431.797 331.56 432.736C332.748 436.192 336.474 437.893 339.39 440.106C342.306 442.32 344.601 446.721 342.09 449.421C340.875 450.744 338.742 451.284 338.121 452.985C337.392 455.091 339.552 457.008 341.253 458.385C344.115 460.814 344.628 468.05 340.848 470.048C339.282 470.885 336.96 471.128 336.555 472.883C336.15 474.638 337.797 475.583 338.85 476.852C339.516 477.708 339.988 478.698 340.235 479.754C340.481 480.81 340.496 481.907 340.278 482.969C340.06 484.031 339.614 485.034 338.971 485.907C338.329 486.781 337.504 487.505 336.555 488.029C335.664 488.461 334.557 488.812 334.206 489.757C334.063 490.465 334.138 491.199 334.422 491.863C334.792 493.179 334.92 494.551 334.8 495.913C334.786 496.384 334.604 496.834 334.287 497.182C333.937 497.417 333.52 497.531 333.099 497.506C327.699 497.749 324.999 495.832 321.705 500.557C321.461 501.058 321.075 501.477 320.595 501.76C320.115 502.044 319.562 502.179 319.005 502.15C315.279 502.447 312.822 500.098 309.393 499.666C304.668 499.072 303.642 501.529 299.484 503.472C293.004 506.874 289.818 505.011 288.576 500.476Z" fill="#EBEBEB"/>
<path d="M294.624 460.545C294.283 459.274 294.084 457.971 294.03 456.657C293.544 448.557 285.93 449.88 279.288 448.773C274.185 447.909 287.739 435.004 277.425 430.819C275.408 430.268 273.644 429.038 272.43 427.336C271.914 426.069 271.855 424.662 272.264 423.356C272.673 422.05 273.524 420.928 274.671 420.181C277.042 418.775 279.775 418.099 282.528 418.238C284.202 416.186 282.825 413.108 281.205 411.002C279.585 408.896 277.587 406.547 278.208 403.955C279.126 400.067 284.58 399.932 288.495 400.688C289.608 398.111 290.327 395.38 290.628 392.589C291.33 389.889 293.328 387.189 296.19 387.459C299.052 387.729 300.348 390.672 302.886 391.293C305.424 391.914 308.286 389.376 310.689 387.405C313.092 385.434 317.034 384.246 318.627 386.811C319.572 388.35 319.005 390.51 320.004 392.022C321.705 394.722 325.782 393.021 328.32 391.158C330.858 389.295 334.854 387.594 336.636 390.186C337.076 391.04 337.403 391.947 337.608 392.886C338.796 396.342 342.522 398.042 345.438 400.256C348.354 402.47 350.622 406.871 348.138 409.571C346.95 410.894 344.817 411.434 344.196 413.135C343.575 414.836 345.627 417.158 347.328 418.535C350.19 420.937 350.703 428.2 346.923 430.198C345.357 431.035 343.035 431.278 342.63 432.898C342.225 434.518 343.872 435.598 344.925 436.867C345.59 437.72 346.063 438.708 346.309 439.762C346.555 440.816 346.57 441.911 346.352 442.972C346.133 444.032 345.688 445.032 345.045 445.903C344.402 446.774 343.579 447.496 342.63 448.017C341.739 448.476 340.605 448.827 340.281 449.772C340.138 450.48 340.213 451.214 340.497 451.878C340.87 453.184 340.989 454.55 340.848 455.901C340.857 456.134 340.819 456.367 340.735 456.585C340.651 456.803 340.525 457.002 340.362 457.17C340.02 457.423 339.599 457.547 339.174 457.521C333.774 457.764 331.074 455.82 327.78 460.572C327.489 461.05 327.103 461.464 326.646 461.786C326.173 462.011 325.657 462.13 325.134 462.137C321.408 462.461 318.951 460.113 315.522 459.681C310.77 459.087 309.771 461.516 305.586 463.487C299.052 466.943 295.866 465.026 294.624 460.545Z" fill="#EBEBEB"/>
<path d="M335.934 480.443C335.595 479.172 335.396 477.869 335.34 476.555C334.854 468.455 327.24 469.751 320.598 468.671C315.495 467.807 329.049 454.875 318.735 450.717C316.718 450.166 314.954 448.936 313.74 447.234C313.251 445.993 313.198 444.622 313.591 443.346C313.983 442.071 314.797 440.966 315.9 440.215C318.268 438.8 321.001 438.114 323.757 438.244C325.431 436.219 324.054 433.114 322.434 431.035C320.814 428.956 318.816 426.58 319.437 423.988C320.355 420.1 325.809 419.965 329.724 420.721C330.824 418.186 331.543 415.502 331.857 412.757C332.559 410.057 334.557 407.357 337.419 407.6C340.281 407.843 341.577 410.84 344.115 411.434C346.653 412.028 349.515 409.544 351.918 407.573C354.321 405.602 358.263 404.414 359.856 406.979C360.801 408.518 360.234 410.678 361.233 412.19C362.934 414.89 367.011 413.189 369.549 411.326C372.087 409.463 376.083 407.762 377.865 410.354C378.305 411.208 378.632 412.115 378.837 413.054C380.025 416.483 383.751 418.211 386.667 420.424C389.583 422.638 391.851 427.039 389.367 429.712C388.152 431.062 386.046 431.602 385.425 433.303C384.669 435.409 386.856 437.299 388.557 438.703C391.419 441.132 391.932 448.395 388.152 450.393C386.586 451.203 384.264 451.473 383.859 453.093C383.454 454.713 385.101 455.793 386.154 457.062C386.819 457.915 387.292 458.903 387.538 459.958C387.784 461.012 387.799 462.106 387.581 463.167C387.362 464.227 386.917 465.227 386.274 466.098C385.631 466.969 384.808 467.691 383.859 468.212C382.968 468.644 381.834 468.995 381.51 469.94C381.367 470.657 381.442 471.4 381.726 472.073C382.099 473.379 382.218 474.745 382.077 476.096C382.089 476.566 381.914 477.023 381.591 477.365C381.242 477.605 380.826 477.728 380.403 477.716C375.003 477.959 372.303 476.015 369.009 480.767C368.726 481.243 368.338 481.649 367.875 481.955C367.408 482.2 366.89 482.329 366.363 482.333C362.637 482.657 360.18 480.308 356.751 479.876C351.999 479.282 351 481.712 346.815 483.683C340.362 486.814 337.176 484.924 335.934 480.443Z" fill="#EBEBEB"/>
<path d="M377.676 471.263C377.366 469.987 377.167 468.686 377.082 467.375C376.623 459.276 368.982 460.572 362.367 459.492C357.237 458.628 370.791 445.695 360.477 441.51C358.466 440.963 356.704 439.743 355.482 438.055C354.963 436.785 354.905 435.374 355.32 434.066C355.734 432.759 356.594 431.638 357.75 430.9C360.104 429.474 362.832 428.787 365.58 428.929C367.254 426.877 365.904 423.799 364.257 421.72C362.61 419.641 360.639 417.239 361.26 414.674C362.178 410.786 367.632 410.651 371.547 411.407C372.657 408.828 373.376 406.098 373.68 403.307C374.382 400.607 376.38 397.907 379.269 398.15C382.158 398.393 383.427 401.39 385.965 401.984C388.908 402.686 391.365 400.067 393.768 398.123C396.171 396.18 400.113 394.938 401.679 397.529C402.651 399.068 402.084 401.201 403.056 402.713C404.784 405.413 408.834 403.712 411.372 401.849C413.91 399.986 417.906 398.312 419.688 400.904C420.14 401.753 420.467 402.662 420.66 403.604C421.875 407.033 425.601 408.761 428.49 410.975C431.379 413.189 433.701 417.563 431.19 420.262C429.975 421.585 427.842 422.125 427.248 423.826C426.492 425.959 428.652 427.849 430.353 429.226C433.215 431.656 433.728 438.919 429.975 440.889C428.382 441.726 426.06 441.996 425.682 443.589C425.304 445.182 426.897 446.289 427.95 447.585C428.615 448.439 429.088 449.427 429.334 450.481C429.58 451.535 429.595 452.63 429.377 453.69C429.158 454.75 428.713 455.751 428.07 456.622C427.427 457.493 426.604 458.214 425.655 458.736C424.764 459.168 423.657 459.519 423.306 460.464C423.163 461.171 423.238 461.906 423.522 462.569C423.889 463.886 424.017 465.258 423.9 466.619C423.902 467.093 423.718 467.549 423.387 467.888C423.043 468.136 422.621 468.251 422.199 468.212C416.799 468.455 414.099 466.538 410.805 471.263C410.522 471.747 410.134 472.162 409.671 472.478C409.201 472.714 408.685 472.843 408.159 472.856C404.433 473.153 401.976 470.831 398.574 470.399C393.822 469.778 392.823 472.235 388.638 474.206C382.104 477.635 378.918 475.745 377.676 471.263Z" fill="#EBEBEB"/>
<path d="M378.216 515.811C377.968 514.801 377.814 513.771 377.757 512.733C377.379 506.388 371.331 507.333 366.174 506.523C362.124 505.848 372.816 495.724 364.689 492.403C363.105 491.979 361.714 491.027 360.747 489.703C360.343 488.706 360.3 487.599 360.626 486.574C360.951 485.549 361.624 484.669 362.529 484.087C364.383 482.974 366.524 482.429 368.685 482.522C370.035 480.929 368.955 478.499 367.659 476.852C366.363 475.205 364.797 473.342 365.283 471.29C366.039 468.239 370.305 468.131 373.383 468.725C374.233 466.727 374.797 464.618 375.057 462.462C375.597 460.356 377.271 458.142 379.431 458.412C381.591 458.682 382.725 460.95 384.831 461.409C386.937 461.868 389.151 459.924 390.96 458.385C392.769 456.846 395.955 455.874 397.224 457.899C397.953 459.114 397.521 460.815 398.304 462.003C399.654 464.081 402.84 462.786 404.838 461.328C406.836 459.87 409.995 458.628 411.372 460.572C411.73 461.234 411.993 461.943 412.155 462.678C413.1 465.377 416.016 466.754 418.311 468.482C420.606 470.21 422.415 473.693 420.471 475.826C419.526 476.852 417.771 477.284 417.366 478.526C416.961 479.768 418.473 481.685 419.823 482.819C422.064 484.735 422.523 490.459 419.526 492.025C418.257 492.673 416.448 492.862 416.124 494.239C415.8 495.616 417.096 496.426 417.933 497.371C418.457 498.045 418.828 498.825 419.022 499.657C419.216 500.488 419.227 501.352 419.055 502.188C418.883 503.025 418.532 503.814 418.026 504.501C417.52 505.189 416.871 505.759 416.124 506.172C415.422 506.496 414.531 506.793 414.288 507.522C414.162 508.083 414.219 508.67 414.45 509.196C414.738 510.232 414.839 511.311 414.747 512.382C414.739 512.754 414.595 513.109 414.342 513.381C414.067 513.575 413.731 513.661 413.397 513.624C409.131 513.84 407.052 512.301 404.433 516.054C404.209 516.431 403.905 516.754 403.542 516.999C403.167 517.167 402.764 517.268 402.354 517.296C399.411 517.539 397.494 515.676 394.794 515.352C391.041 514.866 390.258 516.783 386.964 518.349C381.699 520.941 379.188 519.429 378.216 515.811Z" fill="#EBEBEB"/>
<path d="M401.625 500.476C401.284 499.206 401.085 497.902 401.031 496.588C400.545 488.488 392.931 489.811 386.289 488.704C381.186 487.867 394.74 474.935 384.426 470.75C382.416 470.2 380.654 468.981 379.431 467.294C378.909 466.028 378.848 464.619 379.257 463.312C379.667 462.004 380.521 460.882 381.672 460.14C384.035 458.713 386.772 458.026 389.529 458.169C391.203 456.117 389.826 453.039 388.206 450.933C386.586 448.827 384.588 446.478 385.182 443.886C386.127 439.998 391.554 439.863 395.496 440.619C396.609 438.042 397.328 435.311 397.629 432.52C398.331 429.82 400.329 427.12 403.191 427.39C406.053 427.66 407.349 430.63 409.887 431.224C412.83 431.899 415.287 429.307 417.69 427.363C420.093 425.419 424.035 424.177 425.628 426.742C426.573 428.281 426.006 430.441 427.005 431.953C428.706 434.653 432.783 432.952 435.294 431.089C437.805 429.226 441.855 427.525 443.637 430.117C444.068 430.975 444.395 431.881 444.609 432.817C445.797 436.273 449.523 437.974 452.439 440.187C455.355 442.401 457.623 446.802 455.139 449.502C453.924 450.825 451.791 451.365 451.197 453.066C450.441 455.172 452.628 457.089 454.329 458.466C457.191 460.895 457.704 468.131 453.924 470.129C452.331 470.966 450.009 471.209 449.631 472.964C449.253 474.719 450.873 475.664 451.926 476.933C452.592 477.789 453.064 478.779 453.311 479.835C453.557 480.891 453.572 481.988 453.354 483.05C453.136 484.112 452.69 485.115 452.047 485.988C451.405 486.862 450.58 487.586 449.631 488.11C448.713 488.542 447.606 488.893 447.282 489.838C447.139 490.546 447.214 491.28 447.498 491.944C447.859 493.262 447.977 494.634 447.849 495.994C447.858 496.464 447.684 496.919 447.363 497.263C447.01 497.492 446.595 497.605 446.175 497.587C440.775 497.83 438.075 495.913 434.781 500.638C434.49 501.116 434.104 501.53 433.647 501.853C433.171 502.073 432.658 502.201 432.135 502.231C428.382 502.528 425.952 500.179 422.523 499.747C417.771 499.153 416.772 501.61 412.587 503.554C406.053 506.874 402.867 505.011 401.625 500.476Z" fill="#EBEBEB"/>
<path d="M335.934 431.332C335.595 430.052 335.396 428.74 335.34 427.417C334.854 419.317 327.24 420.64 320.598 419.533C315.495 418.697 329.049 405.764 318.735 401.579C316.72 401.04 314.955 399.818 313.74 398.123C313.224 396.856 313.165 395.449 313.574 394.143C313.983 392.837 314.834 391.715 315.981 390.969C318.344 389.542 321.081 388.856 323.838 388.998C325.512 386.946 324.135 383.868 322.515 381.789C320.895 379.71 318.897 377.307 319.518 374.743C320.436 370.855 325.89 370.693 329.805 371.449C330.905 368.914 331.624 366.23 331.938 363.484C332.64 360.784 334.638 358.084 337.5 358.354C340.362 358.624 341.658 361.594 344.196 362.188C346.734 362.782 349.596 360.271 351.999 358.327C354.402 356.383 358.344 355.141 359.937 357.733C360.882 359.272 360.315 361.405 361.314 362.917C363.015 365.617 367.092 363.916 369.63 362.053C372.168 360.19 376.164 358.516 377.946 361.081C378.377 361.939 378.704 362.845 378.918 363.781C380.106 367.237 383.832 368.965 386.748 371.179C389.664 373.393 391.932 377.766 389.448 380.466C388.233 381.789 386.127 382.329 385.506 384.03C384.75 386.163 386.937 388.053 388.638 389.43C391.5 391.86 392.013 399.122 388.233 401.093C386.667 401.93 384.345 402.173 383.94 403.928C383.535 405.683 385.182 406.628 386.235 407.924C386.9 408.778 387.373 409.766 387.619 410.82C387.865 411.874 387.88 412.969 387.662 414.029C387.443 415.089 386.998 416.089 386.355 416.961C385.712 417.832 384.888 418.553 383.94 419.074C383.049 419.506 381.915 419.857 381.591 420.802C381.448 421.51 381.523 422.244 381.807 422.908C382.179 424.224 382.298 425.598 382.158 426.958C382.167 427.428 381.993 427.883 381.672 428.227C381.321 428.459 380.904 428.573 380.484 428.551C375.084 428.794 372.384 426.877 369.09 431.602C368.807 432.086 368.419 432.501 367.956 432.817C367.485 433.05 366.969 433.178 366.444 433.195C362.718 433.492 360.261 431.17 356.832 430.738C352.08 430.117 351.081 432.574 346.896 434.545C340.362 437.704 337.176 435.787 335.934 431.332Z" fill="#EBEBEB"/>
<path d="M282.285 434.059C281.969 432.784 281.779 431.482 281.718 430.171C281.232 422.071 273.618 423.394 266.976 422.287C261.846 421.423 275.4 408.491 265.086 404.333C263.076 403.783 261.32 402.552 260.118 400.85C259.596 399.584 259.535 398.175 259.944 396.868C260.354 395.56 261.208 394.438 262.359 393.696C264.716 392.28 267.443 391.603 270.189 391.752C271.89 389.7 270.513 386.622 268.866 384.516C267.219 382.41 265.248 380.061 265.869 377.469C266.814 373.581 272.241 373.447 276.183 374.202C277.275 371.619 277.984 368.891 278.289 366.103C279.018 363.403 281.124 360.703 283.878 360.973C286.632 361.243 288.036 364.186 290.574 364.78C293.112 365.374 295.974 362.89 298.377 360.919C300.78 358.948 304.722 357.76 306.315 360.325C307.26 361.864 306.693 364.024 307.665 365.536C309.393 368.236 313.47 366.535 315.981 364.672C318.492 362.809 322.542 361.108 324.297 363.7C324.746 364.553 325.081 365.46 325.296 366.4C326.484 369.856 330.21 371.557 333.099 373.771C335.988 375.984 338.31 380.385 335.799 383.085C334.584 384.408 332.451 384.948 331.857 386.649C331.101 388.755 333.261 390.672 334.989 392.049C337.689 394.452 338.337 401.714 334.584 403.712C332.991 404.549 330.669 404.792 330.291 406.547C329.913 408.302 331.533 409.247 332.586 410.516C333.247 411.371 333.715 412.359 333.959 413.412C334.203 414.466 334.216 415.559 333.998 416.618C333.78 417.677 333.336 418.676 332.696 419.547C332.057 420.419 331.236 421.141 330.291 421.666C329.373 422.098 328.266 422.476 327.915 423.421C327.786 424.129 327.861 424.86 328.131 425.527C328.513 426.832 328.641 428.197 328.509 429.55C328.51 430.019 328.337 430.471 328.023 430.819C327.664 431.059 327.24 431.182 326.808 431.17C321.408 431.413 318.708 429.469 315.414 434.221C315.139 434.703 314.749 435.111 314.28 435.409C313.824 435.657 313.314 435.787 312.795 435.787C309.042 436.111 306.585 433.762 303.183 433.33C298.431 432.736 297.432 435.166 293.247 437.137C286.713 440.457 283.5 438.54 282.285 434.059Z" fill="#EBEBEB"/>
<path d="M249.723 456.009C249.384 454.738 249.185 453.435 249.129 452.121C248.643 444.021 241.029 445.344 234.387 444.237C229.284 443.373 242.838 430.441 232.524 426.283C230.507 425.732 228.743 424.502 227.529 422.8C227.013 421.533 226.954 420.126 227.363 418.82C227.772 417.514 228.623 416.392 229.77 415.646C232.138 414.231 234.871 413.545 237.627 413.675C239.301 411.65 237.924 408.572 236.304 406.466C234.684 404.36 232.686 402.011 233.307 399.419C234.225 395.531 239.652 395.396 243.594 396.152C244.707 393.575 245.426 390.844 245.727 388.053C246.429 385.353 248.427 382.653 251.289 382.896C254.151 383.139 255.447 386.136 257.985 386.73C260.928 387.432 263.385 384.84 265.788 382.869C268.191 380.898 272.133 379.71 273.726 382.275C274.671 383.814 274.104 385.974 275.103 387.486C276.804 390.186 280.881 388.485 283.419 386.622C285.957 384.759 289.953 383.058 291.735 385.65C292.175 386.504 292.502 387.411 292.707 388.35C293.895 391.806 297.621 393.507 300.537 395.72C303.453 397.934 305.721 402.335 303.237 405.035C302.022 406.358 299.916 406.898 299.295 408.599C298.539 410.705 300.726 412.595 302.427 413.999C305.289 416.429 305.802 423.691 302.022 425.689C300.456 426.499 298.134 426.769 297.729 428.524C297.324 430.279 298.971 431.224 300.024 432.493C300.689 433.347 301.162 434.335 301.408 435.389C301.654 436.443 301.669 437.538 301.451 438.598C301.232 439.658 300.787 440.658 300.144 441.529C299.501 442.4 298.677 443.122 297.729 443.643C296.811 444.075 295.704 444.453 295.38 445.398C295.237 446.106 295.312 446.84 295.596 447.504C295.969 448.81 296.088 450.176 295.947 451.527C295.959 451.997 295.784 452.454 295.461 452.796C295.111 453.032 294.696 453.155 294.273 453.147C288.873 453.39 286.173 451.446 282.879 456.198C282.596 456.674 282.208 457.08 281.745 457.386C281.278 457.631 280.76 457.76 280.233 457.764C276.507 458.088 274.05 455.739 270.621 455.307C265.869 454.713 264.87 457.143 260.685 459.114C254.151 462.407 251.1 460.49 249.723 456.009Z" fill="#EBEBEB"/>
<path d="M259.605 483.763C259.605 483.763 273.105 503.014 277.911 509.115C282.717 515.217 306.099 553.285 309.312 578.448C309.636 581.148 309.987 583.443 310.311 585.468C300.213 652.155 301.779 774.162 302.211 795.059H334.206C334.503 771.489 337.23 556.174 338.229 549.613C339.228 543.053 352.674 516.162 373.329 505.281C393.984 494.401 411.858 458.385 411.858 458.385H405.27C405.27 458.385 393.039 480.47 375.57 492.673C373.07 494.398 370.453 495.95 367.74 497.317C367.784 484.03 365.443 470.844 360.828 458.385L357.345 461.813C362.151 481.469 361.53 494.212 360.045 501.313C353.5 504.319 347.447 508.296 342.09 513.111C324.054 489.676 313.929 436.057 313.929 436.057L309.312 438.568C310.616 449.642 312.608 460.625 315.279 471.452C318.654 485.329 328.59 511.464 333.207 523.317C327.727 531.285 323.196 539.865 319.707 548.884C319.212 548.12 318.622 547.422 317.952 546.805C306.099 536.276 284.04 486.112 284.04 486.112C278.64 474.449 286.74 443.832 286.74 443.832H280.8L278.1 470.588L262.413 453.714L259.713 456.063L276.156 477.203L284.607 503.985L262.521 479.552L259.605 483.763Z" fill="#E6E6E6"/>
<path d="M1192.62 886.315L157.383 886.315V854.132C157.383 851.324 157.936 848.544 159.011 845.949C160.085 843.355 161.661 840.998 163.646 839.012C165.632 837.027 167.989 835.451 170.584 834.377C173.178 833.302 175.959 832.749 178.767 832.749L1171.26 832.749C1176.93 832.749 1182.37 835.002 1186.38 839.012C1190.39 843.022 1192.64 848.461 1192.64 854.132V886.315H1192.62Z" fill="#E0E0E0"/>
<path d="M675 1006C964.123 1006 1198.5 992.317 1198.5 975.438C1198.5 958.558 964.123 944.875 675 944.875C385.877 944.875 151.497 958.558 151.497 975.438C151.497 992.317 385.877 1006 675 1006Z" fill="#F5F5F5"/>
<path d="M284.634 907.725C284.634 907.725 280.8 880.294 263.331 877.243C245.862 874.192 251.046 861.044 246.483 855.806C241.92 850.568 229.932 865.85 240.192 880.537C250.452 895.224 242.055 890.607 246.483 904.269C250.911 917.93 286.2 930.485 284.634 907.725Z" fill="#263238"/>
<path opacity="0.2" d="M284.634 907.725C284.634 907.725 280.8 880.294 263.331 877.243C245.862 874.192 251.046 861.044 246.483 855.806C241.92 850.568 229.932 865.85 240.192 880.537C250.452 895.224 242.055 890.607 246.483 904.269C250.911 917.93 286.2 930.485 284.634 907.725Z" fill="white"/>
<path d="M283.905 925.544C283.905 925.544 270.405 897.573 277.506 851.891C284.607 806.209 311.121 788.498 288.036 738.254C264.951 688.009 238.599 652.182 251.775 616.516" stroke="#263238" stroke-width="0.9" stroke-linecap="round" stroke-linejoin="round"/>
<path d="M273.753 920.063C273.753 920.063 262.413 902.946 278.802 894.144C295.191 885.343 298.458 892.443 308.502 886.045C318.546 879.646 326.322 864.446 328.05 874.192C329.778 883.939 318.06 889.582 322.218 894.063C326.376 898.545 294.759 927.785 273.753 920.063Z" fill="#263238"/>
<path d="M246.969 630.799C246.969 630.799 235.899 597.185 261.063 596.483C286.227 595.781 258.498 627.235 246.969 630.799Z" fill="#263238"/>
<path d="M268.839 656.663C268.839 656.663 276.318 626.101 294.192 632.527C312.066 638.952 286.632 657.23 268.839 656.663Z" fill="#263238"/>
<path d="M238.518 659.309C238.518 659.309 241.218 635.01 222.318 634.416C203.418 633.822 211.761 655.367 238.518 659.309Z" fill="#263238"/>
<path d="M251.1 709.068C251.1 709.068 225.666 686.416 216.54 703.29C207.414 720.164 235.737 723.701 251.1 709.068Z" fill="#263238"/>
<path d="M296.136 705.045C296.136 705.045 300.915 667.409 321.462 679.207C342.009 691.006 314.037 708.825 296.136 705.045Z" fill="#263238"/>
<path d="M314.226 758.962C314.226 758.962 299.052 720.92 327.24 725.213C355.428 729.506 334.098 749.728 314.226 758.962Z" fill="#263238"/>
<path d="M270.972 772.542C270.972 772.542 247.158 744.517 228.987 753.4C210.816 762.282 225.666 790.172 270.972 772.542Z" fill="#263238"/>
<path d="M292.572 834.666C292.572 834.666 312.849 789.632 330.885 804.806C348.921 819.979 319.383 842.685 292.572 834.666Z" fill="#263238"/>
<path d="M263.115 832.02C263.115 832.02 268.515 797.111 248.4 799.919C228.285 802.727 233.577 824.083 263.115 832.02Z" fill="#263238"/>
<g opacity="0.2">
<path opacity="0.2" d="M246.969 630.799C246.969 630.799 235.899 597.185 261.063 596.483C286.227 595.781 258.498 627.235 246.969 630.799Z" fill="white"/>
<path opacity="0.2" d="M268.839 656.663C268.839 656.663 276.318 626.101 294.192 632.527C312.066 638.952 286.632 657.23 268.839 656.663Z" fill="white"/>
<path opacity="0.2" d="M238.518 659.309C238.518 659.309 241.218 635.01 222.318 634.416C203.418 633.822 211.761 655.367 238.518 659.309Z" fill="white"/>
<path opacity="0.2" d="M251.1 709.068C251.1 709.068 225.666 686.416 216.54 703.29C207.414 720.164 235.737 723.701 251.1 709.068Z" fill="white"/>
<path opacity="0.2" d="M296.136 705.045C296.136 705.045 300.915 667.409 321.462 679.207C342.009 691.006 314.037 708.825 296.136 705.045Z" fill="white"/>
<path opacity="0.2" d="M314.226 758.962C314.226 758.962 299.052 720.92 327.24 725.213C355.428 729.506 334.098 749.728 314.226 758.962Z" fill="white"/>
<path opacity="0.2" d="M270.972 772.542C270.972 772.542 247.158 744.517 228.987 753.4C210.816 762.282 225.666 790.172 270.972 772.542Z" fill="white"/>
<path opacity="0.2" d="M292.572 834.666C292.572 834.666 312.849 789.632 330.885 804.806C348.921 819.979 319.383 842.685 292.572 834.666Z" fill="white"/>
<path opacity="0.2" d="M263.115 832.02C263.115 832.02 268.515 797.111 248.4 799.919C228.285 802.727 233.577 824.083 263.115 832.02Z" fill="white"/>
</g>
<path d="M232.2 651.318C232.2 651.318 243 667.382 257.823 675.616C257.823 675.616 267.624 656.717 275.265 652.128" stroke="#263238" stroke-width="0.9" stroke-linecap="round" stroke-linejoin="round"/>
<path d="M231.606 706.827C231.606 706.827 259.146 705.936 280.935 722.405C280.935 722.405 293.031 701.913 308.88 692.707" stroke="#263238" stroke-width="0.9" stroke-linecap="round" stroke-linejoin="round"/>
<path d="M322.515 740.953C322.515 740.953 310.689 772.056 295.515 784.151C295.515 784.151 264.249 766.008 241.272 765.576" stroke="#263238" stroke-width="0.9" stroke-linecap="round" stroke-linejoin="round"/>
<path d="M250.722 811.231C250.722 811.231 266.166 841.389 277.722 847.976C286.532 837.262 298.43 829.523 311.796 825.811" stroke="#263238" stroke-width="0.9" stroke-linecap="round" stroke-linejoin="round"/>
<path d="M275.4 915.986C275.4 915.986 265.653 900.489 254.664 898.275C243.675 896.061 239.031 883.399 234.9 891.093C230.769 898.788 242.109 923.897 275.4 915.986Z" fill="#263238"/>
<path d="M224.964 976.814H331.29L338.418 911.235H217.863L224.964 976.814Z" fill="#D80005"/>
<path d="M215.379 923.654H340.902L342.495 909.75H213.759L215.379 923.654Z" fill="#D80005"/>
<path opacity="0.3" d="M215.379 923.654H340.902L342.495 909.75H213.759L215.379 923.654Z" fill="white"/>
<path d="M1158.03 267.584L1148.8 356.275H1102.57L1093.34 267.584H1158.03Z" fill="#263238"/>
<path opacity="0.3" d="M1158.03 267.584L1148.8 356.275H1102.57L1093.34 267.584H1158.03Z" fill="white"/>
<path d="M1134.27 337.214H1117.07V976.814H1134.27V337.214Z" fill="#263238"/>
<path opacity="0.3" d="M1134.27 337.214H1117.07V976.814H1134.27V337.214Z" fill="white"/>
<path d="M1143.94 350.876H1107.43L1099.33 272.984H1152.04L1143.94 350.876Z" fill="#D80005"/>
<path opacity="0.4" d="M1143.94 350.876H1107.43L1099.33 272.984H1152.04L1143.94 350.876Z" fill="white"/>
<path d="M1120.88 352.091H1118.39L1115.69 270.284H1118.18L1120.88 352.091Z" fill="#263238"/>
<path opacity="0.3" d="M1120.88 352.091H1118.39L1115.69 270.284H1118.18L1120.88 352.091Z" fill="white"/>
<path opacity="0.2" d="M1158.03 267.584L1148.8 356.275H1119.74L1116.26 267.584H1158.03Z" fill="white"/>
<path d="M1125.68 239.074C1125.68 239.074 1098.25 266.073 1077.25 266.073L1083.78 270.365H1167.48L1173.99 266.073C1153.09 266.127 1125.68 239.074 1125.68 239.074Z" fill="#263238"/>
<path opacity="0.4" d="M1174.09 266.127L1167.59 270.392H1083.89L1077.3 266.127C1098.31 266.127 1125.71 239.128 1125.71 239.128C1125.71 239.128 1153.09 266.127 1174.09 266.127Z" fill="white"/>
<path opacity="0.2" d="M1174.1 266.127L1167.59 270.392H1113.16C1111.51 267.693 1110.46 265.776 1110.46 265.776C1125.06 258.999 1125.79 239.074 1125.79 239.074C1125.79 239.074 1153.09 266.127 1174.1 266.127Z" fill="white"/>
<path d="M1110.92 964.962H1140.45C1142.22 964.962 1143.92 965.665 1145.17 966.915C1146.42 968.166 1147.12 969.862 1147.12 971.631V976.787H1104.3V971.631C1104.3 969.871 1105 968.183 1106.23 966.934C1107.47 965.685 1109.16 964.976 1110.92 964.962V964.962Z" fill="#263238"/>
<path opacity="0.5" d="M1110.92 964.962H1140.45C1142.22 964.962 1143.92 965.665 1145.17 966.915C1146.42 968.166 1147.12 969.862 1147.12 971.631V976.787H1104.3V971.631C1104.3 969.871 1105 968.183 1106.23 966.934C1107.47 965.685 1109.16 964.976 1110.92 964.962V964.962Z" fill="white"/>
<path d="M648.027 168.985H295.461C283.785 168.985 274.32 178.45 274.32 190.125V683.986C274.32 695.661 283.785 705.126 295.461 705.126H648.027C659.703 705.126 669.168 695.661 669.168 683.986V190.125C669.168 178.45 659.703 168.985 648.027 168.985Z" fill="#D80005"/>
<path opacity="0.6" d="M648.027 168.985H295.461C283.785 168.985 274.32 178.45 274.32 190.125V683.986C274.32 695.661 283.785 705.126 295.461 705.126H648.027C659.703 705.126 669.168 695.661 669.168 683.986V190.125C669.168 178.45 659.703 168.985 648.027 168.985Z" fill="white"/>
<path d="M524.772 312.753C524.777 323.242 521.672 333.497 515.848 342.22C510.025 350.944 501.745 357.744 492.056 361.762C482.367 365.779 471.704 366.833 461.415 364.79C451.127 362.747 441.676 357.699 434.257 350.285C426.838 342.87 421.785 333.422 419.737 323.135C417.689 312.848 418.737 302.185 422.75 292.495C426.763 282.804 433.559 274.521 442.28 268.693C451.001 262.865 461.255 259.755 471.744 259.755C478.707 259.748 485.604 261.114 492.039 263.774C498.474 266.435 504.322 270.338 509.247 275.26C514.172 280.183 518.078 286.028 520.742 292.461C523.406 298.895 524.776 305.79 524.772 312.753V312.753Z" fill="#D80005"/>
<path opacity="0.7" d="M524.772 312.753C524.777 323.242 521.672 333.497 515.848 342.22C510.025 350.944 501.745 357.744 492.056 361.762C482.367 365.779 471.704 366.833 461.415 364.79C451.127 362.747 441.676 357.699 434.257 350.285C426.838 342.87 421.785 333.422 419.737 323.135C417.689 312.848 418.737 302.185 422.75 292.495C426.763 282.804 433.559 274.521 442.28 268.693C451.001 262.865 461.255 259.755 471.744 259.755C478.707 259.748 485.604 261.114 492.039 263.774C498.474 266.435 504.322 270.338 509.247 275.26C514.172 280.183 518.078 286.028 520.742 292.461C523.406 298.895 524.776 305.79 524.772 312.753V312.753Z" fill="white"/>
<path d="M471.744 326.739C482.227 326.739 490.725 318.241 490.725 307.759C490.725 297.276 482.227 288.779 471.744 288.779C461.261 288.779 452.763 297.276 452.763 307.759C452.763 318.241 461.261 326.739 471.744 326.739Z" fill="white"/>
<path d="M505.413 353.818C495.925 361.604 484.031 365.859 471.758 365.859C459.484 365.859 447.59 361.604 438.102 353.818C443.07 339.266 453.303 328.521 465.588 325.794C469.643 324.894 473.845 324.894 477.9 325.794C490.212 328.44 500.418 339.185 505.413 353.818Z" fill="white"/>
<path d="M578.583 536.276H364.932C352.749 536.276 342.873 546.152 342.873 558.334V558.361C342.873 570.543 352.749 580.419 364.932 580.419H578.583C590.766 580.419 600.642 570.543 600.642 558.361V558.334C600.642 546.152 590.766 536.276 578.583 536.276Z" fill="#D80005"/>
<path d="M578.583 387.243H364.932C352.749 387.243 342.873 397.119 342.873 409.301V409.328C342.873 421.51 352.749 431.386 364.932 431.386H578.583C590.766 431.386 600.642 421.51 600.642 409.328V409.301C600.642 397.119 590.766 387.243 578.583 387.243Z" fill="white"/>
<path d="M578.583 449.826H364.932C352.749 449.826 342.873 459.702 342.873 471.884V471.911C342.873 484.093 352.749 493.969 364.932 493.969H578.583C590.766 493.969 600.642 484.093 600.642 471.911V471.884C600.642 459.702 590.766 449.826 578.583 449.826Z" fill="white"/>
<path opacity="0.2" d="M555.282 398.933V419.668H584.658V398.933H555.282ZM579.852 401.201L569.97 407.951L560.061 401.201H579.852ZM557.523 417.4V402.2L569.97 410.678L582.39 402.2V417.4H557.523Z" fill="black"/>
<g opacity="0.2">
<path opacity="0.2" d="M576.909 468.455V465.944C576.902 464.421 576.294 462.963 575.217 461.886C574.14 460.809 572.681 460.201 571.158 460.193H568.026C566.503 460.201 565.044 460.809 563.967 461.886C562.89 462.963 562.282 464.421 562.275 465.944V468.455H557.55V485.707H582.363V468.455H576.909ZM564.543 465.944C564.543 465.021 564.91 464.135 565.563 463.481C566.216 462.828 567.102 462.461 568.026 462.461H571.158C572.082 462.461 572.968 462.828 573.621 463.481C574.274 464.135 574.641 465.021 574.641 465.944V468.455H564.543V465.944ZM580.122 483.439H559.818V470.723H580.122V483.439Z" fill="black"/>
<path opacity="0.2" d="M569.322 477.77V479.822H570.618V477.77C570.807 477.66 570.965 477.503 571.074 477.313C571.183 477.123 571.24 476.908 571.239 476.69C571.266 476.506 571.253 476.318 571.2 476.14C571.148 475.961 571.058 475.796 570.937 475.655C570.815 475.515 570.664 475.402 570.495 475.325C570.326 475.247 570.142 475.207 569.956 475.207C569.771 475.207 569.587 475.247 569.418 475.325C569.248 475.402 569.098 475.515 568.976 475.655C568.855 475.796 568.765 475.961 568.713 476.14C568.66 476.318 568.647 476.506 568.674 476.69C568.679 476.91 568.741 477.126 568.855 477.316C568.968 477.505 569.129 477.662 569.322 477.77V477.77Z" fill="black"/>
</g>
<path d="M949.482 244.879H871.911C865.574 244.879 859.496 247.396 855.015 251.877C850.534 256.358 848.016 262.435 848.016 268.772V336.269C848.016 342.606 850.534 348.684 855.015 353.165C859.496 357.646 865.574 360.163 871.911 360.163H902.583L910.683 381.465L918.783 360.163H949.455C952.592 360.163 955.698 359.545 958.595 358.344C961.493 357.143 964.125 355.382 966.342 353.163C968.558 350.944 970.316 348.31 971.514 345.411C972.712 342.512 973.327 339.406 973.323 336.269V268.772C973.327 265.638 972.713 262.534 971.517 259.637C970.32 256.74 968.565 254.107 966.351 251.888C964.138 249.669 961.508 247.908 958.614 246.706C955.719 245.503 952.616 244.882 949.482 244.879Z" fill="#D80005"/>
<path opacity="0.7" d="M949.482 244.879H871.911C865.574 244.879 859.496 247.396 855.015 251.877C850.534 256.358 848.016 262.435 848.016 268.772V336.269C848.016 342.606 850.534 348.684 855.015 353.165C859.496 357.646 865.574 360.163 871.911 360.163H902.583L910.683 381.465L918.783 360.163H949.455C952.592 360.163 955.698 359.545 958.595 358.344C961.493 357.143 964.125 355.382 966.342 353.163C968.558 350.944 970.316 348.31 971.514 345.411C972.712 342.512 973.327 339.406 973.323 336.269V268.772C973.327 265.638 972.713 262.534 971.517 259.637C970.32 256.74 968.565 254.107 966.351 251.888C964.138 249.669 961.508 247.908 958.614 246.706C955.719 245.503 952.616 244.882 949.482 244.879Z" fill="white"/>
<path d="M937.906 329.445C952.942 314.41 952.941 290.033 937.906 274.997C922.87 259.962 898.491 259.962 883.456 274.997C868.42 290.033 868.42 314.41 883.455 329.445C898.491 344.48 922.87 344.48 937.906 329.445Z" fill="#D80005"/>
<path d="M906.66 319.422C906.147 319.423 905.639 319.313 905.173 319.098C904.707 318.884 904.293 318.571 903.96 318.18L888.84 300.388C888.231 299.672 887.932 298.743 888.008 297.807C888.084 296.87 888.529 296.002 889.245 295.393C889.961 294.785 890.89 294.485 891.826 294.561C892.763 294.637 893.631 295.082 894.24 295.798L906.66 310.431L927.153 286.133C927.762 285.417 928.63 284.972 929.567 284.896C930.503 284.82 931.432 285.119 932.148 285.728C932.864 286.336 933.309 287.204 933.385 288.141C933.461 289.078 933.162 290.006 932.553 290.722L909.36 318.18C909.025 318.568 908.61 318.879 908.144 319.093C907.679 319.308 907.173 319.42 906.66 319.422Z" fill="white"/>
<path d="M1054.86 976.814H1072.68L1036.23 771.084H1018.41L1054.86 976.814Z" fill="#263238"/>
<path d="M662.931 976.814H680.778L644.328 771.084H626.481L662.931 976.814Z" fill="#263238"/>
<path opacity="0.3" d="M1054.86 976.814H1072.68L1036.23 771.084H1018.41L1054.86 976.814Z" fill="white"/>
<path opacity="0.3" d="M662.931 976.814H680.778L644.328 771.084H626.481L662.931 976.814Z" fill="white"/>
<path d="M507.843 892.011L1045.55 892.011V873.949L507.843 873.949V892.011Z" fill="#263238"/>
<path opacity="0.5" d="M507.843 892.011L1045.55 892.011V873.949L507.843 873.949V892.011Z" fill="white"/>
<path d="M890.433 976.814H872.613L909.063 771.084H926.883L890.433 976.814Z" fill="#263238"/>
<path d="M498.528 976.814H480.681L517.131 771.084H534.978L498.528 976.814Z" fill="#263238"/>
<path opacity="0.3" d="M890.433 976.814H872.613L909.063 771.084H926.883L890.433 976.814Z" fill="white"/>
<path opacity="0.3" d="M498.528 976.814H480.681L517.131 771.084H534.978L498.528 976.814Z" fill="white"/>
<path d="M660.204 763.092H677.943L707.643 597.995H689.904L660.204 763.092Z" fill="#263238"/>
<path opacity="0.3" d="M660.204 763.092H677.943L707.643 597.995H689.904L660.204 763.092Z" fill="white"/>
<path d="M1012.53 763.092H1030.27L1059.97 597.995H1042.23L1012.53 763.092Z" fill="#263238"/>
<path d="M836.352 763.092H854.091L883.791 597.995H866.052L836.352 763.092Z" fill="#263238"/>
<path opacity="0.3" d="M1012.53 763.092H1030.27L1059.97 597.995H1042.23L1012.53 763.092Z" fill="white"/>
<path opacity="0.3" d="M836.352 763.092H854.091L883.791 597.995H866.052L836.352 763.092Z" fill="white"/>
<path d="M629.559 609.28H1095.5L1101.06 578.367H635.121L629.559 609.28Z" fill="#263238"/>
<path d="M619.515 665.168H1085.45L1091.02 634.281H625.077L619.515 665.168Z" fill="#263238"/>
<path d="M609.444 721.055H1075.38L1080.95 690.169H615.006L609.444 721.055Z" fill="#263238"/>
<path d="M476.955 779.615L1070.77 779.615V758.233L476.955 758.233V779.615Z" fill="#263238"/>
<path opacity="0.5" d="M629.559 609.28H1095.5L1101.06 578.367H635.121L629.559 609.28Z" fill="white"/>
<path opacity="0.5" d="M619.515 665.168H1085.45L1091.02 634.281H625.077L619.515 665.168Z" fill="white"/>
<path opacity="0.5" d="M609.444 721.055H1075.38L1080.95 690.169H615.006L609.444 721.055Z" fill="white"/>
<path opacity="0.5" d="M476.955 779.615L1070.77 779.615V758.233L476.955 758.233V779.615Z" fill="white"/>
<path opacity="0.2" d="M476.955 779.615H924.966V758.233H476.955V779.615Z" fill="white"/>
<path d="M879.093 537.977C871.612 546.254 863.689 554.123 855.36 561.547C851.148 565.3 846.801 568.971 842.049 572.481C839.646 574.236 837.162 575.991 834.381 577.692C832.888 578.612 831.347 579.45 829.764 580.203C827.719 581.214 825.575 582.011 823.365 582.579C821.545 583.019 819.674 583.209 817.803 583.146L815.886 582.93L814.914 582.714L812.997 582.228C810.997 581.574 809.062 580.733 807.219 579.717C804.317 578.066 801.562 576.169 798.984 574.047C794.449 570.319 790.19 566.267 786.24 561.925C778.684 553.659 771.812 544.792 765.693 535.412C764.781 534.057 764.394 532.416 764.604 530.796C764.814 529.176 765.606 527.688 766.833 526.609C768.061 525.531 769.638 524.937 771.272 524.937C772.905 524.937 774.483 525.532 775.71 526.61H775.845C783.945 533.468 792.045 540.461 800.145 546.778C804.02 549.872 808.058 552.756 812.241 555.418C813.954 556.527 815.761 557.485 817.641 558.28C818.201 558.534 818.79 558.715 819.396 558.82C819.1 558.79 818.801 558.79 818.505 558.82C817.984 558.776 817.46 558.776 816.939 558.82C816.75 558.82 817.344 558.55 817.992 558.118C818.64 557.686 819.504 557.146 820.368 556.525C822.096 555.283 823.932 553.825 825.768 552.205C829.467 549.019 833.22 545.536 836.946 541.946C844.344 534.764 851.823 527.123 859.005 519.699L859.14 519.564C861.61 517.052 864.963 515.605 868.485 515.531C872.007 515.457 875.418 516.763 877.99 519.17C880.563 521.576 882.092 524.893 882.253 528.412C882.414 531.931 881.192 535.373 878.85 538.004L879.093 537.977Z" fill="#E9B376"/>
<path d="M872.235 513.786V552.475C872.235 552.475 864.135 559.279 854.01 566.785C848.988 570.537 843.507 574.452 838.377 577.773C830.574 582.849 823.554 586.575 819.99 586.359C809.352 585.711 786.267 569.214 786.267 569.214L801.441 543.944C801.441 543.944 818.883 554.608 819.99 555.337C821.097 556.066 857.682 514.029 872.235 513.786Z" fill="#D80005"/>
<path opacity="0.2" d="M854.01 566.785C848.988 570.537 843.507 574.452 838.377 577.773C839.592 555.58 850.041 547.048 850.041 547.048C853.09 553.159 854.46 559.97 854.01 566.785V566.785Z" fill="black"/>
<path d="M886.977 412.055C868.347 427.255 870.561 470.993 891.486 499.693C891.486 499.693 936.198 503.446 961.038 492.322C985.878 481.199 958.338 410.381 932.175 404.819C916.736 401.44 900.59 404.025 886.977 412.055V412.055Z" fill="#263238"/>
<path d="M888.084 457.494C881.253 445.722 874.584 413.945 902.853 404.144C938.304 391.887 954.153 414.485 957.258 436.894C960.363 459.303 947.7 476.231 924.264 474.557C900.828 472.883 892.782 465.647 888.084 457.494Z" fill="#263238"/>
<path d="M850.014 547.049C846.558 563.437 852.714 602.045 853.632 631.15L937.116 640.761C937.116 631.636 938.817 618.406 944.271 597.374C947.376 585.063 951.858 570.051 957.987 551.638C958.878 548.938 959.823 546.239 960.687 543.242C961.785 540.353 962.224 537.255 961.973 534.175C961.721 531.095 960.785 528.109 959.233 525.437C957.681 522.764 955.551 520.472 953 518.727C950.449 516.983 947.541 515.83 944.487 515.352C940.977 514.785 937.251 514.299 933.444 513.921C920.013 512.235 906.478 511.522 892.944 511.788C888.543 511.923 883.953 512.247 879.579 512.625C864 513.948 853.2 531.713 850.014 547.049Z" fill="#263238"/>
<path d="M933.039 468.32C928.854 481.118 923.265 504.687 931.257 513.786C931.257 513.786 919.053 511.302 892.08 526.043C885.087 514.812 890.892 511.653 890.892 511.653C905.823 508.953 906.795 498.154 905.58 488.083L933.039 468.32Z" fill="#EBB376"/>
<path opacity="0.2" d="M921.861 476.366L905.661 488.056C905.983 490.445 906.092 492.857 905.985 495.265C911.628 494.752 919.998 489.109 921.321 483.385C921.928 481.098 922.111 478.719 921.861 476.366Z" fill="black"/>
<path d="M938.628 438.433C938.925 459.789 939.492 468.833 929.556 480.551C914.652 498.181 888.327 493.861 881.658 473.018C875.664 454.119 876.258 422.449 896.4 412.433C900.841 410.207 905.777 409.152 910.739 409.368C915.702 409.585 920.527 411.066 924.757 413.67C928.987 416.274 932.481 419.916 934.909 424.25C937.336 428.583 938.617 433.465 938.628 438.433Z" fill="#FFB573"/>
<path d="M920.511 418.453C914.598 425.878 928.071 449.259 938.709 453.228C959.364 446.424 938.196 396.287 920.511 418.453Z" fill="#263238"/>
<path d="M895.212 408.491C887.355 411.947 879.984 426.715 879.012 432.223C890.703 433.114 920.808 419.614 920.808 419.614C920.808 419.614 942.003 423.502 930.609 413.945C919.215 404.387 895.212 408.491 895.212 408.491Z" fill="#263238"/>
<path d="M903.096 447.126C903.096 448.854 902.421 450.312 901.287 450.42C900.153 450.528 899.127 449.151 898.992 447.423C898.857 445.695 899.694 444.237 900.828 444.129C901.962 444.021 902.961 445.398 903.096 447.126Z" fill="#263238"/>
<path d="M883.521 448.584C883.521 450.312 882.846 451.797 881.712 451.878C880.578 451.959 879.552 450.636 879.417 448.908C879.282 447.18 880.119 445.695 881.253 445.614C882.387 445.533 883.386 446.856 883.521 448.584Z" fill="#263238"/>
<path d="M881.739 445.614L877.5 444.723C877.5 444.723 879.876 447.855 881.739 445.614Z" fill="#263238"/>
<path d="M891.837 450.744C890.56 454.811 888.744 458.688 886.437 462.272C887.37 462.832 888.413 463.182 889.495 463.299C890.576 463.415 891.67 463.295 892.701 462.947L891.837 450.744Z" fill="#ED893E"/>
<path d="M902.691 469.022C901.856 469.22 901.008 469.356 900.153 469.427C900.017 469.427 899.886 469.373 899.79 469.277C899.694 469.181 899.64 469.05 899.64 468.914C899.64 468.778 899.694 468.648 899.79 468.551C899.886 468.455 900.017 468.401 900.153 468.401C902.316 468.294 904.423 467.676 906.3 466.596C908.178 465.517 909.772 464.007 910.953 462.191C910.984 462.134 911.026 462.083 911.077 462.042C911.128 462.001 911.187 461.971 911.25 461.953C911.313 461.936 911.379 461.931 911.444 461.939C911.509 461.948 911.572 461.969 911.628 462.002C911.744 462.066 911.831 462.171 911.871 462.297C911.911 462.422 911.902 462.559 911.844 462.677C910.823 464.296 909.487 465.692 907.914 466.782C906.341 467.873 904.565 468.634 902.691 469.022V469.022Z" fill="#263238"/>
<path d="M945.837 457.494C945.269 459.46 944.318 461.295 943.04 462.894C941.761 464.492 940.179 465.822 938.385 466.808C933.579 469.508 929.961 465.377 930.285 460.193C930.582 455.55 933.444 448.584 938.79 448.098C939.953 448.024 941.116 448.241 942.174 448.728C943.233 449.216 944.153 449.96 944.852 450.892C945.552 451.824 946.008 452.916 946.18 454.068C946.352 455.221 946.234 456.398 945.837 457.494V457.494Z" fill="#FFB573"/>
<path d="M912.6 442.05C912.388 442.093 912.168 442.069 911.97 441.982C911.772 441.895 911.605 441.749 911.493 441.564C909.063 437.542 903.015 437.056 902.961 437.056C902.689 437.038 902.435 436.912 902.255 436.707C902.075 436.502 901.985 436.234 902.003 435.962C902.02 435.69 902.146 435.436 902.351 435.256C902.556 435.077 902.824 434.986 903.096 435.004C903.393 435.004 910.278 435.598 913.248 440.403C913.387 440.636 913.428 440.915 913.362 441.178C913.296 441.441 913.129 441.667 912.897 441.807L912.6 442.05Z" fill="#263238"/>
<path d="M879.012 439.485C878.838 439.527 878.656 439.522 878.485 439.47C878.314 439.418 878.161 439.32 878.04 439.189C877.945 439.095 877.869 438.984 877.817 438.861C877.765 438.738 877.738 438.606 877.738 438.473C877.738 438.34 877.765 438.208 877.817 438.085C877.869 437.962 877.945 437.851 878.04 437.758C879.177 436.604 880.577 435.744 882.119 435.25C883.662 434.757 885.301 434.644 886.896 434.923C887.025 434.953 887.148 435.008 887.256 435.086C887.364 435.163 887.455 435.261 887.526 435.374C887.596 435.486 887.643 435.612 887.665 435.743C887.686 435.874 887.682 436.008 887.652 436.138C887.622 436.267 887.567 436.389 887.489 436.497C887.412 436.605 887.314 436.697 887.201 436.767C887.088 436.837 886.963 436.885 886.832 436.906C886.701 436.928 886.566 436.924 886.437 436.894V436.894C885.171 436.7 883.877 436.81 882.661 437.213C881.446 437.617 880.343 438.303 879.444 439.216C879.322 439.337 879.175 439.429 879.012 439.485V439.485Z" fill="#263238"/>
<path d="M901.314 444.21L897.075 443.319C897.075 443.319 899.451 446.397 901.314 444.21Z" fill="#263238"/>
<path d="M825.444 523.074L827.469 529.391C827.842 530.562 828.49 531.627 829.359 532.496C830.229 533.365 831.293 534.013 832.464 534.386L843.588 537.95C845.778 538.657 848.106 538.827 850.375 538.446C852.645 538.066 854.789 537.145 856.629 535.763L858.924 534.035C856.224 523.236 845.559 513.678 845.559 513.678L842.859 510.573C842.31 509.928 841.638 509.397 840.884 509.011C840.129 508.625 839.306 508.391 838.461 508.324C837.616 508.256 836.766 508.355 835.959 508.616C835.152 508.877 834.405 509.294 833.76 509.844L827.577 515.244C826.494 516.197 825.715 517.447 825.336 518.839C824.957 520.231 824.994 521.703 825.444 523.074V523.074Z" fill="#EBB376"/>
<path d="M750.6 528.851L752.625 535.196C753.007 536.367 753.661 537.43 754.534 538.298C755.407 539.167 756.474 539.815 757.647 540.191L768.744 543.755C770.935 544.455 773.261 544.621 775.529 544.241C777.798 543.861 779.942 542.944 781.785 541.568L784.107 539.84C781.407 529.04 770.607 519.456 770.607 519.456L767.907 516.378C767.359 515.725 766.687 515.188 765.93 514.798C765.173 514.407 764.346 514.171 763.497 514.104C762.647 514.036 761.793 514.137 760.984 514.403C760.174 514.668 759.425 515.092 758.781 515.649L752.598 521.049C751.55 522.019 750.803 523.272 750.449 524.656C750.095 526.04 750.147 527.496 750.6 528.851Z" fill="#EBB376"/>
<path opacity="0.2" d="M912.06 562.762C917.46 578.583 931.149 590.381 944.271 597.374C947.376 585.063 951.858 570.051 957.987 551.638C949.752 540.137 938.223 531.956 923.535 534.17C923.535 534.17 906.633 546.752 912.06 562.762Z" fill="black"/>
<path d="M615.789 876.649L629.883 882.346C629.883 882.346 749.628 701.724 760.725 708.501C800.874 733.097 883.413 777.051 922.482 750.43C961.551 723.809 938.358 653.639 938.358 653.639C938.358 653.639 862.38 626.965 852.984 643.461C850.507 648.383 848.352 653.461 846.531 658.661C844.587 663.872 843.075 668.273 843.075 668.273C840.78 667.193 766.314 631.365 731.241 646.134C695.574 661.118 615.789 876.649 615.789 876.649Z" fill="#EBB376"/>
<path d="M875.475 760.069C875.475 760.069 837.81 762.525 786.213 745.003C786.213 745.003 773.496 888.853 764.937 966.933L747.657 964.503C747.657 964.503 718.254 751.375 724.059 725.402C729.864 699.429 761.4 697.701 761.4 697.701C761.4 697.701 821.529 741.898 875.475 760.069Z" fill="#EBB376"/>
<path d="M875.475 760.068C850.047 760.379 824.696 757.227 800.118 750.7L805.032 730.235C824.013 742.789 850.5 750.43 875.475 760.068Z" fill="#D80005"/>
<path opacity="0.4" d="M875.475 760.068C850.047 760.379 824.696 757.227 800.118 750.7L805.032 730.235C824.013 742.789 850.5 750.43 875.475 760.068Z" fill="white"/>
<path d="M801.846 728.156L797.337 750.943L804.195 753.265L809.487 733.178L801.846 728.156Z" fill="#D80005"/>
<path opacity="0.6" d="M801.846 728.156L797.337 750.943L804.195 753.265L809.487 733.178L801.846 728.156Z" fill="white"/>
<path opacity="0.2" d="M730.323 815.983C727.623 759.285 726.435 730.019 735.723 718.328C741.856 711.103 750.297 706.22 759.618 704.505C771.714 735.149 824.418 754.264 825.876 754.777C845.559 758.854 874.719 759.907 875.448 760.176C850.23 755.046 826.284 744.95 805.005 730.478C789.813 720.464 775.251 709.527 761.4 697.728C761.4 697.728 729.945 699.429 724.14 725.402C721.764 736.04 725.274 777.942 730.242 823.812C730.412 821.206 730.439 818.592 730.323 815.983V815.983Z" fill="black"/>
<path d="M601.722 864.797C601.538 864.37 601.491 863.896 601.587 863.442C601.684 862.987 601.92 862.573 602.262 862.259C602.481 861.983 602.755 861.757 603.066 861.594C603.378 861.431 603.72 861.336 604.071 861.314C605.896 861.401 607.662 861.989 609.174 863.015C607.851 861.287 606.825 859.424 607.284 858.263C607.581 857.507 608.337 857.102 609.552 857.102C610.084 857.087 610.614 857.188 611.103 857.397C611.593 857.607 612.031 857.921 612.387 858.317C614.736 860.882 614.223 866.74 614.223 867.01C614.238 867.1 614.238 867.191 614.223 867.28C614.234 867.325 614.234 867.371 614.223 867.415C614.161 867.428 614.096 867.428 614.034 867.415H613.818C611.295 867.473 608.771 867.283 606.285 866.848C604.044 866.605 602.262 865.931 601.722 864.797ZM604.179 862.583C603.998 862.587 603.82 862.631 603.657 862.71C603.494 862.789 603.35 862.902 603.234 863.042C602.613 863.798 602.775 864.149 602.829 864.257C603.477 865.553 607.986 866.201 611.793 866.309C609.606 864.662 606.177 862.394 604.179 862.583ZM609.579 858.344C609.228 858.344 608.607 858.344 608.472 858.722C608.094 859.721 610.416 862.826 613.035 865.526C613.227 863.287 612.676 861.048 611.469 859.154C611.13 858.769 610.675 858.503 610.173 858.398L609.579 858.344Z" fill="#263238"/>
<path d="M730.755 952.164C730.41 951.852 730.169 951.441 730.063 950.988C729.957 950.535 729.991 950.06 730.161 949.627C730.245 949.285 730.398 948.965 730.612 948.686C730.826 948.407 731.095 948.176 731.403 948.007C733.107 947.291 734.978 947.067 736.803 947.359C734.859 946.36 733.158 945.118 733.077 943.876C733.077 943.066 733.59 942.391 734.616 941.851C735.097 941.625 735.623 941.507 736.155 941.507C736.687 941.507 737.213 941.625 737.694 941.851C740.934 943.147 743.094 948.655 743.094 948.898C743.119 948.995 743.119 949.097 743.094 949.195C743.075 949.28 743.028 949.356 742.959 949.411L742.824 949.546C739.732 951.168 736.377 952.228 732.915 952.677C732.157 952.764 731.393 952.582 730.755 952.164V952.164ZM732.051 949.087C731.884 949.168 731.737 949.285 731.621 949.43C731.504 949.575 731.42 949.743 731.376 949.924C731.133 950.869 731.376 951.112 731.538 951.193C732.672 952.083 736.938 950.733 740.502 949.195C737.829 948.655 733.752 948.088 732.051 949.087ZM735.075 942.985C734.751 943.147 734.211 943.444 734.238 943.795C734.238 944.848 737.721 946.657 741.285 947.953C740.483 945.863 739.024 944.091 737.127 942.904C736.838 942.777 736.525 942.712 736.209 942.715C735.815 942.714 735.426 942.806 735.075 942.985V942.985Z" fill="#263238"/>
<path d="M638.766 876.271C639.549 874.489 617.166 865.904 617.166 865.904C617.166 865.904 597.645 873.301 583.308 870.385C568.971 867.469 572.508 878.485 587.088 885.181L622.782 901.65C633.177 906.375 630.801 894.684 638.766 876.271Z" fill="#263238"/>
<path d="M769.149 946.603C769.149 944.659 745.308 946.468 745.308 946.468C745.308 946.468 730.836 961.533 716.661 965.043C702.486 968.553 710.532 977.003 726.435 976.814L765.747 976.328C777.033 976.193 769.851 966.69 769.149 946.603Z" fill="#263238"/>
<path d="M938.358 653.639C938.358 653.639 862.38 626.965 852.984 643.461C850.519 648.388 848.363 653.465 846.531 658.661C844.587 663.872 843.075 668.273 843.075 668.273L836.838 665.411L811.404 741.358C851.904 763.821 909.063 766.413 932.499 750.457C971.487 723.836 938.358 653.639 938.358 653.639Z" fill="#D80005"/>
<g opacity="0.4">
<path opacity="0.4" d="M938.358 653.639C938.358 653.639 862.38 626.965 852.984 643.461C850.519 648.388 848.363 653.465 846.531 658.661C844.587 663.872 843.075 668.273 843.075 668.273L836.838 665.411L811.404 741.358C851.904 763.821 909.063 766.413 932.499 750.457C971.487 723.836 938.358 653.639 938.358 653.639Z" fill="white"/>
</g>
<path opacity="0.3" d="M843.075 668.273L886.896 686.875C886.896 686.875 864.405 667.976 846.396 658.661C844.587 663.872 843.075 668.273 843.075 668.273Z" fill="black"/>
<path d="M851.904 645.54L853.443 626.803L938.358 638.088L939.465 656.177L851.904 645.54Z" fill="#D80005"/>
<path opacity="0.4" d="M851.904 645.54L853.443 626.803L938.358 638.088L939.465 656.177L851.904 645.54Z" fill="white"/>
<path d="M853.605 628.639L858.06 629.287L856.683 643.893L853.011 643.461L853.605 628.639Z" fill="#263238"/>
<path d="M862.272 629.881L910.143 636.846L908.901 650.13L860.922 644.406L862.272 629.881Z" fill="#263238"/>
<path d="M938.358 653.64L913.113 650.643L914.355 637.467L937.143 640.761L938.358 653.64Z" fill="#263238"/>
<path opacity="0.2" d="M853.605 628.639L858.06 629.287L856.683 643.893L853.011 643.461L853.605 628.639Z" fill="black"/>
<path opacity="0.2" d="M862.272 629.881L910.143 636.846L908.901 650.13L860.922 644.406L862.272 629.881Z" fill="black"/>
<path opacity="0.2" d="M938.358 653.64L913.113 650.643L914.355 637.467L937.143 640.761L938.358 653.64Z" fill="black"/>
<path d="M873.65 646.167L887.274 647.971C888.663 648.155 889.939 647.177 890.123 645.788L891.328 636.687C891.511 635.298 890.534 634.022 889.145 633.839L875.52 632.035C874.131 631.851 872.855 632.829 872.671 634.218L871.467 643.318C871.283 644.708 872.26 645.984 873.65 646.167Z" stroke="white" stroke-linecap="round" stroke-linejoin="round"/>
<path d="M883.44 640.005L888.246 640.761" stroke="white" stroke-linecap="round" stroke-linejoin="round"/>
<path d="M833.166 660.119L840.24 663.872L816.237 745.462L806.166 743.464L833.166 660.119Z" fill="#D80005"/>
<path opacity="0.6" d="M833.166 660.119L840.24 663.872L816.237 745.462L806.166 743.464L833.166 660.119Z" fill="white"/>
<path d="M827.496 577.908H768.096C766.966 577.887 765.882 577.452 765.051 576.686C764.22 575.92 763.699 574.875 763.587 573.75L755.298 494.779C755.241 494.251 755.296 493.717 755.461 493.212C755.625 492.707 755.895 492.242 756.252 491.849C756.609 491.456 757.046 491.143 757.533 490.932C758.02 490.72 758.547 490.614 759.078 490.621H818.478C819.611 490.641 820.698 491.075 821.534 491.841C822.369 492.607 822.896 493.652 823.014 494.779L831.276 573.75C831.338 574.279 831.286 574.815 831.123 575.322C830.96 575.829 830.69 576.295 830.332 576.689C829.974 577.083 829.536 577.396 829.046 577.606C828.557 577.816 828.028 577.919 827.496 577.908Z" fill="#263238"/>
<path opacity="0.6" d="M827.496 577.908H768.096C766.966 577.887 765.882 577.452 765.051 576.686C764.22 575.92 763.699 574.875 763.587 573.75L755.298 494.779C755.241 494.251 755.296 493.717 755.461 493.212C755.625 492.707 755.895 492.242 756.252 491.849C756.609 491.456 757.046 491.143 757.533 490.932C758.02 490.72 758.547 490.614 759.078 490.621H818.478C819.611 490.641 820.698 491.075 821.534 491.841C822.369 492.607 822.896 493.652 823.014 494.779L831.276 573.75C831.338 574.279 831.286 574.815 831.123 575.322C830.96 575.829 830.69 576.295 830.332 576.689C829.974 577.083 829.536 577.396 829.046 577.606C828.557 577.816 828.028 577.919 827.496 577.908Z" fill="white"/>
<path opacity="0.2" d="M825.012 577.908H768.015C766.885 577.887 765.801 577.452 764.97 576.686C764.139 575.92 763.618 574.875 763.506 573.75L755.217 494.779C755.16 494.251 755.215 493.717 755.38 493.212C755.544 492.707 755.814 492.242 756.171 491.849C756.528 491.456 756.965 491.143 757.452 490.932C757.939 490.72 758.466 490.614 758.997 490.621H815.994C817.124 490.642 818.208 491.077 819.039 491.843C819.87 492.609 820.391 493.654 820.503 494.779L828.9 573.615C828.985 574.164 828.947 574.724 828.788 575.256C828.629 575.788 828.353 576.278 827.98 576.689C827.607 577.1 827.148 577.423 826.634 577.634C826.121 577.845 825.566 577.939 825.012 577.908V577.908Z" fill="white"/>
<path d="M790.317 527.663C789.492 527.651 788.675 527.814 787.918 528.142C787.161 528.47 786.483 528.955 785.929 529.565C785.374 530.176 784.957 530.898 784.703 531.682C784.449 532.467 784.366 533.297 784.458 534.116C784.624 535.867 785.428 537.495 786.718 538.69C788.008 539.885 789.693 540.564 791.451 540.596C792.277 540.605 793.095 540.438 793.852 540.107C794.609 539.776 795.286 539.288 795.84 538.676C796.394 538.063 796.811 537.34 797.065 536.554C797.318 535.768 797.402 534.937 797.31 534.116C795.558 534.079 793.88 533.403 792.592 532.214C791.303 531.025 790.495 529.407 790.317 527.663Z" fill="#263238"/>
<path opacity="0.3" d="M803.196 496.75H771.768C770.996 496.734 770.243 496.503 769.594 496.084C768.946 495.664 768.427 495.072 768.096 494.374L766.206 490.486H807.678L806.463 494.374C806.251 495.072 805.818 495.681 805.228 496.11C804.639 496.539 803.925 496.764 803.196 496.75V496.75Z" fill="black"/>
<path d="M954.882 677.452H943.839C943.839 677.452 930.042 636.036 921.996 600.938C919.75 591.656 918.029 582.254 916.839 572.778C915.685 562.281 916.602 551.658 919.539 541.514C922.319 531.478 927.074 522.097 933.525 513.921L931.284 513.786C952.182 513.57 963.468 520.806 964.872 533.819C966.276 546.833 943.272 624.049 942.084 634.362C940.896 644.676 954.882 677.452 954.882 677.452Z" fill="#D80005"/>
<path d="M883.548 512.328C883.548 512.328 861.435 547.156 855.522 561.952C849.609 576.747 853.011 619.135 853.011 619.135C853.011 619.135 841.698 568.134 848.961 542.864C856.224 517.593 868.833 512.409 883.548 512.328Z" fill="#D80005"/>
<path d="M959.256 543.728C952.648 553.737 945.167 563.143 936.9 571.833C932.494 576.542 927.648 580.818 922.428 584.604C919.233 586.966 915.725 588.874 912.006 590.273C909.41 591.238 906.674 591.776 903.906 591.866C902.089 591.924 900.272 591.734 898.506 591.299C897.583 591.077 896.68 590.779 895.806 590.408L894.402 589.761C891.11 588.177 888.012 586.221 885.168 583.929C882.637 581.944 880.221 579.817 877.932 577.557C873.636 573.309 869.605 568.801 865.863 564.058C858.594 554.901 852.084 545.167 846.396 534.953C845.47 533.516 845.126 531.78 845.434 530.098C845.742 528.416 846.68 526.915 848.056 525.9C849.432 524.885 851.144 524.433 852.842 524.635C854.54 524.837 856.097 525.679 857.196 526.988C864.837 534.899 872.775 542.864 880.686 550.207C884.628 553.879 888.786 557.389 892.728 560.494C896.162 563.315 899.981 565.633 904.068 567.379L904.581 567.568C904.376 567.459 904.159 567.377 903.933 567.324C903.565 567.209 903.184 567.136 902.799 567.109C902.34 567.109 902.448 567.109 902.799 566.812C904.257 565.969 905.639 565.003 906.93 563.923C910.587 560.738 914.007 557.291 917.163 553.609C923.913 545.834 930.663 536.978 936.684 528.5L936.9 528.203C939.009 525.447 942.098 523.608 945.527 523.069C948.956 522.53 952.46 523.332 955.313 525.309C958.166 527.286 960.147 530.286 960.846 533.686C961.545 537.085 960.908 540.624 959.067 543.566L959.256 543.728Z" fill="#E9B376"/>
<path opacity="0.2" d="M956.34 553.609C956.34 553.609 936.9 586.764 921.996 600.83C919.75 591.548 918.029 582.146 916.839 572.67C915.685 562.172 916.602 551.55 919.539 541.406L934.929 528.716C942.57 522.426 956.34 553.609 956.34 553.609Z" fill="black"/>
<path d="M957.717 523.047C967.896 528.446 964.818 543.215 951.48 560.656C938.142 578.097 914.004 601.667 901.314 597.374C888.624 593.081 874.314 576.207 874.314 576.207L883.575 550.072C883.575 550.072 901.746 563.869 905.526 563.167C909.306 562.465 927.828 538.49 933.174 531.065C938.52 523.641 946.674 517.08 957.717 523.047Z" fill="#D80005"/>
<path d="M767.961 524.586L767.583 529.769C767.476 531.107 766.918 532.37 766.001 533.35C765.084 534.331 763.862 534.972 762.534 535.169L755.487 536.222L757.161 517.323L763.047 518.349C764.494 518.593 765.798 519.367 766.707 520.52C767.615 521.672 768.062 523.122 767.961 524.586Z" fill="#FFB573"/>
</svg>
